<svg width="1329" height="2899" viewBox="0 0 1329 2899" fill="none" xmlns="http://www.w3.org/2000/svg">
<path fill-rule="evenodd" clip-rule="evenodd" d="M839.911 3.82129C840.966 3.82129 841.821 2.96587 841.821 1.91065C841.821 0.855426 840.966 0 839.911 0C838.855 0 838 0.855426 838 1.91065C838 2.96587 838.855 3.82129 839.911 3.82129ZM340.821 35.9106C340.821 36.9659 339.966 37.8213 338.911 37.8213C337.855 37.8213 337 36.9659 337 35.9106C337 34.8554 337.855 34 338.911 34C339.966 34 340.821 34.8554 340.821 35.9106ZM1274.61 61.218C1276.6 61.218 1278.22 59.6022 1278.22 57.609C1278.22 55.6158 1276.6 54 1274.61 54C1272.62 54 1271 55.6158 1271 57.609C1271 59.6022 1272.62 61.218 1274.61 61.218ZM1267.61 208.218C1269.6 208.218 1271.22 206.602 1271.22 204.609C1271.22 202.616 1269.6 201 1267.61 201C1265.62 201 1264 202.616 1264 204.609C1264 206.602 1265.62 208.218 1267.61 208.218ZM61.218 285.609C61.218 287.602 59.6022 289.218 57.609 289.218C55.6158 289.218 54 287.602 54 285.609C54 283.616 55.6158 282 57.609 282C59.6022 282 61.218 283.616 61.218 285.609ZM300.218 675.609C300.218 677.602 298.602 679.218 296.609 679.218C294.616 679.218 293 677.602 293 675.609C293 673.616 294.616 672 296.609 672C298.602 672 300.218 673.616 300.218 675.609ZM224.218 794.609C224.218 796.602 222.602 798.218 220.609 798.218C218.616 798.218 217 796.602 217 794.609C217 792.616 218.616 791 220.609 791C222.602 791 224.218 792.616 224.218 794.609ZM196.609 1523.22C198.602 1523.22 200.218 1521.6 200.218 1519.61C200.218 1517.62 198.602 1516 196.609 1516C194.616 1516 193 1517.62 193 1519.61C193 1521.6 194.616 1523.22 196.609 1523.22ZM1271 2476.61C1271 2474.62 1272.62 2473 1274.61 2473C1276.6 2473 1278.22 2474.62 1278.22 2476.61C1278.22 2478.6 1276.6 2480.22 1274.61 2480.22C1272.62 2480.22 1271 2478.6 1271 2476.61ZM1022.22 278.609C1022.22 280.602 1020.6 282.218 1018.61 282.218C1016.62 282.218 1015 280.602 1015 278.609C1015 276.616 1016.62 275 1018.61 275C1020.6 275 1022.22 276.616 1022.22 278.609ZM579.911 353.821C580.966 353.821 581.821 352.966 581.821 351.911C581.821 350.855 580.966 350 579.911 350C578.855 350 578 350.855 578 351.911C578 352.966 578.855 353.821 579.911 353.821ZM917.258 819.178C916.207 819.08 915.276 819.852 915.178 820.903C915.079 821.953 915.852 822.884 916.902 822.983C917.953 823.081 918.884 822.308 918.982 821.258C919.08 820.207 918.308 819.276 917.258 819.178ZM891.178 1581.9C891.276 1580.85 892.207 1580.08 893.258 1580.18C894.308 1580.28 895.08 1581.21 894.982 1582.26C894.884 1583.31 893.953 1584.08 892.902 1583.98C891.852 1583.88 891.079 1582.95 891.178 1581.9ZM499.903 2468.98C500.953 2469.08 501.884 2468.31 501.983 2467.26C502.081 2466.21 501.309 2465.28 500.258 2465.18C499.207 2465.08 498.276 2465.85 498.178 2466.9C498.08 2467.95 498.852 2468.88 499.903 2468.98ZM300.178 1116.9C300.276 1115.85 301.207 1115.08 302.258 1115.18C303.308 1115.28 304.08 1116.21 303.982 1117.26C303.884 1118.31 302.953 1119.08 301.902 1118.98C300.852 1118.88 300.079 1117.95 300.178 1116.9ZM278.258 1840.18C277.207 1840.08 276.276 1840.85 276.178 1841.9C276.079 1842.95 276.852 1843.88 277.902 1843.98C278.953 1844.08 279.884 1843.31 279.982 1842.26C280.08 1841.21 279.308 1840.28 278.258 1840.18ZM988.178 1074.9C988.276 1073.85 989.207 1073.08 990.258 1073.18C991.308 1073.28 992.08 1074.21 991.982 1075.26C991.884 1076.31 990.953 1077.08 989.902 1076.98C988.852 1076.88 988.079 1075.95 988.178 1074.9ZM645.258 1692.18C644.207 1692.08 643.276 1692.85 643.178 1693.9C643.079 1694.95 643.852 1695.88 644.902 1695.98C645.953 1696.08 646.884 1695.31 646.982 1694.26C647.08 1693.21 646.308 1692.28 645.258 1692.18ZM1236.18 1116.9C1236.28 1115.85 1237.21 1115.08 1238.26 1115.18C1239.31 1115.28 1240.08 1116.21 1239.98 1117.26C1239.88 1118.31 1238.95 1119.08 1237.9 1118.98C1236.85 1118.88 1236.08 1117.95 1236.18 1116.9ZM917.258 1860.18C916.207 1860.08 915.276 1860.85 915.178 1861.9C915.079 1862.95 915.852 1863.88 916.902 1863.98C917.953 1864.08 918.884 1863.31 918.982 1862.26C919.08 1861.21 918.308 1860.28 917.258 1860.18ZM376.178 1283.9C376.276 1282.85 377.207 1282.08 378.258 1282.18C379.308 1282.28 380.08 1283.21 379.982 1284.26C379.884 1285.31 378.953 1286.08 377.902 1285.98C376.852 1285.88 376.079 1284.95 376.178 1283.9ZM354.258 2007.18C353.207 2007.08 352.276 2007.85 352.178 2008.9C352.079 2009.95 352.852 2010.88 353.902 2010.98C354.953 2011.08 355.884 2010.31 355.982 2009.26C356.08 2008.21 355.308 2007.28 354.258 2007.18ZM718.983 2550.26C718.884 2551.31 717.953 2552.08 716.903 2551.98C715.852 2551.88 715.08 2550.95 715.178 2549.9C715.276 2548.85 716.207 2548.08 717.258 2548.18C718.308 2548.28 719.081 2549.21 718.983 2550.26ZM972.258 1456.18C971.207 1456.08 970.276 1456.85 970.178 1457.9C970.079 1458.95 970.852 1459.88 971.902 1459.98C972.953 1460.08 973.884 1459.31 973.982 1458.26C974.08 1457.21 973.308 1456.28 972.258 1456.18ZM402.983 2897.26C402.884 2898.31 401.953 2899.08 400.903 2898.98C399.852 2898.88 399.08 2897.95 399.178 2896.9C399.276 2895.85 400.207 2895.08 401.258 2895.18C402.309 2895.28 403.081 2896.21 402.983 2897.26ZM948.258 2181.18C947.207 2181.08 946.276 2181.85 946.178 2182.9C946.079 2183.95 946.852 2184.88 947.902 2184.98C948.953 2185.08 949.884 2184.31 949.982 2183.26C950.08 2182.21 949.308 2181.28 948.258 2181.18ZM483.178 1415.9C483.276 1414.85 484.207 1414.08 485.258 1414.18C486.308 1414.28 487.08 1415.21 486.982 1416.26C486.884 1417.31 485.953 1418.08 484.902 1417.98C483.852 1417.88 483.079 1416.95 483.178 1415.9ZM1257.9 2829.98C1258.95 2830.08 1259.88 2829.31 1259.98 2828.26C1260.08 2827.21 1259.31 2826.28 1258.26 2826.18C1257.21 2826.08 1256.28 2826.85 1256.18 2827.9C1256.08 2828.95 1256.85 2829.88 1257.9 2829.98ZM1305.18 1358.9C1305.28 1357.85 1306.21 1357.08 1307.26 1357.18C1308.31 1357.28 1309.08 1358.21 1308.98 1359.26C1308.88 1360.31 1307.95 1361.08 1306.9 1360.98C1305.85 1360.88 1305.08 1359.95 1305.18 1358.9ZM1283.26 2082.18C1282.21 2082.08 1281.28 2082.85 1281.18 2083.9C1281.08 2084.95 1281.85 2085.88 1282.9 2085.98C1283.95 2086.08 1284.88 2085.31 1284.98 2084.26C1285.08 2083.21 1284.31 2082.28 1283.26 2082.18ZM112.983 2528.26C112.884 2529.31 111.953 2530.08 110.903 2529.98C109.852 2529.88 109.08 2528.95 109.178 2527.9C109.276 2526.85 110.207 2526.08 111.258 2526.18C112.308 2526.28 113.081 2527.21 112.983 2528.26ZM26.2576 1393.18C25.2069 1393.08 24.2757 1393.85 24.1776 1394.9C24.0795 1395.95 24.8517 1396.88 25.9023 1396.98C26.953 1397.08 27.8842 1396.31 27.9823 1395.26C28.0804 1394.21 27.3082 1393.28 26.2576 1393.18ZM1116.98 2596.26C1116.88 2597.31 1115.95 2598.08 1114.9 2597.98C1113.85 2597.88 1113.08 2596.95 1113.18 2595.9C1113.28 2594.85 1114.21 2594.08 1115.26 2594.18C1116.31 2594.28 1117.08 2595.21 1116.98 2596.26ZM79.2576 2221.18C78.2069 2221.08 77.2757 2221.85 77.1776 2222.9C77.0795 2223.95 77.8517 2224.88 78.9023 2224.98C79.953 2225.08 80.8842 2224.31 80.9823 2223.26C81.0804 2222.21 80.3082 2221.28 79.2576 2221.18ZM55.9106 699.821C56.9659 699.821 57.8213 698.966 57.8213 697.911C57.8213 696.855 56.9659 696 55.9106 696C54.8554 696 54 696.855 54 697.911C54 698.966 54.8554 699.821 55.9106 699.821ZM1084.82 157.911C1084.82 158.966 1083.97 159.821 1082.91 159.821C1081.86 159.821 1081 158.966 1081 157.911C1081 156.855 1081.86 156 1082.91 156C1083.97 156 1084.82 156.855 1084.82 157.911ZM653.911 495.821C654.966 495.821 655.821 494.966 655.821 493.911C655.821 492.855 654.966 492 653.911 492C652.855 492 652 492.855 652 493.911C652 494.966 652.855 495.821 653.911 495.821ZM1042.26 729.178C1041.21 729.08 1040.28 729.852 1040.18 730.903C1040.08 731.953 1040.85 732.884 1041.9 732.983C1042.95 733.081 1043.88 732.308 1043.98 731.258C1044.08 730.207 1043.31 729.276 1042.26 729.178ZM841.911 615.821C842.966 615.821 843.821 614.966 843.821 613.911C843.821 612.855 842.966 612 841.911 612C840.855 612 840 612.855 840 613.911C840 614.966 840.855 615.821 841.911 615.821ZM1328.82 998.911C1328.82 999.966 1327.97 1000.82 1326.91 1000.82C1325.86 1000.82 1325 999.966 1325 998.911C1325 997.855 1325.86 997 1326.91 997C1327.97 997 1328.82 997.855 1328.82 998.911ZM1302.91 1725.82C1303.97 1725.82 1304.82 1724.97 1304.82 1723.91C1304.82 1722.86 1303.97 1722 1302.91 1722C1301.86 1722 1301 1722.86 1301 1723.91C1301 1724.97 1301.86 1725.82 1302.91 1725.82ZM20 2830.25C20 2829.19 20.8554 2828.34 21.9106 2828.34C22.9659 2828.34 23.8213 2829.19 23.8213 2830.25C23.8213 2831.3 22.9659 2832.16 21.9106 2832.16C20.8554 2832.16 20 2831.3 20 2830.25ZM564.911 644.821C565.966 644.821 566.821 643.966 566.821 642.911C566.821 641.855 565.966 641 564.911 641C563.855 641 563 641.855 563 642.911C563 643.966 563.855 644.821 564.911 644.821ZM98.8213 918.911C98.8213 919.966 97.9659 920.821 96.9106 920.821C95.8554 920.821 95 919.966 95 918.911C95 917.855 95.8554 917 96.9106 917C97.9659 917 98.8213 917.855 98.8213 918.911ZM72.9106 1645.82C73.9659 1645.82 74.8213 1644.97 74.8213 1643.91C74.8213 1642.86 73.9659 1642 72.9106 1642C71.8554 1642 71 1642.86 71 1643.91C71 1644.97 71.8554 1645.82 72.9106 1645.82ZM238.821 581.911C238.821 582.966 237.966 583.821 236.911 583.821C235.855 583.821 235 582.966 235 581.911C235 580.855 235.855 580 236.911 580C237.966 580 238.821 580.855 238.821 581.911ZM102.911 503.821C103.966 503.821 104.821 502.966 104.821 501.911C104.821 500.855 103.966 500 102.911 500C101.855 500 101 500.855 101 501.911C101 502.966 101.855 503.821 102.911 503.821ZM605.821 835.911C605.821 836.966 604.966 837.821 603.911 837.821C602.855 837.821 602 836.966 602 835.911C602 834.855 602.855 834 603.911 834C604.966 834 605.821 834.855 605.821 835.911ZM737.178 734.903C737.276 733.852 738.207 733.08 739.258 733.178C740.308 733.276 741.08 734.207 740.982 735.258C740.884 736.308 739.953 737.081 738.902 736.983C737.852 736.884 737.079 735.953 737.178 734.903ZM580.258 1131.18C579.207 1131.08 578.276 1131.85 578.178 1132.9C578.079 1133.95 578.852 1134.88 579.902 1134.98C580.953 1135.08 581.884 1134.31 581.982 1133.26C582.08 1132.21 581.308 1131.28 580.258 1131.18ZM554.178 1857.9C554.276 1856.85 555.207 1856.08 556.258 1856.18C557.308 1856.28 558.08 1857.21 557.982 1858.26C557.884 1859.31 556.953 1860.08 555.902 1859.98C554.852 1859.88 554.079 1858.95 554.178 1857.9ZM778.564 2747.98C779.614 2748.08 780.546 2747.31 780.644 2746.26C780.742 2745.21 779.97 2744.28 778.919 2744.18C777.868 2744.08 776.937 2744.85 776.839 2745.9C776.741 2746.95 777.513 2747.88 778.564 2747.98ZM864.178 1302.9C864.276 1301.85 865.207 1301.08 866.258 1301.18C867.308 1301.28 868.08 1302.21 867.982 1303.26C867.884 1304.31 866.953 1305.08 865.902 1304.98C864.852 1304.88 864.079 1303.95 864.178 1302.9ZM842.258 2026.18C841.207 2026.08 840.276 2026.85 840.178 2027.9C840.079 2028.95 840.852 2029.88 841.902 2029.98C842.953 2030.08 843.884 2029.31 843.982 2028.26C844.08 2027.21 843.308 2026.28 842.258 2026.18ZM484.644 2526.26C484.546 2527.31 483.614 2528.08 482.564 2527.98C481.513 2527.88 480.741 2526.95 480.839 2525.9C480.937 2524.85 481.868 2524.08 482.919 2524.18C483.97 2524.28 484.742 2525.21 484.644 2526.26ZM1137.26 1255.18C1136.21 1255.08 1135.28 1255.85 1135.18 1256.9C1135.08 1257.95 1135.85 1258.88 1136.9 1258.98C1137.95 1259.08 1138.88 1258.31 1138.98 1257.26C1139.08 1256.21 1138.31 1255.28 1137.26 1255.18ZM1156.18 1957.9C1156.28 1956.85 1157.21 1956.08 1158.26 1956.18C1159.31 1956.28 1160.08 1957.21 1159.98 1958.26C1159.88 1959.31 1158.95 1960.08 1157.9 1959.98C1156.85 1959.88 1156.08 1958.95 1156.18 1957.9ZM166.564 2597.98C167.614 2598.08 168.546 2597.31 168.644 2596.26C168.742 2595.21 167.97 2594.28 166.919 2594.18C165.868 2594.08 164.937 2594.85 164.839 2595.9C164.741 2596.95 165.513 2597.88 166.564 2597.98ZM1263.91 553.821C1264.97 553.821 1265.82 552.966 1265.82 551.911C1265.82 550.855 1264.97 550 1263.91 550C1262.86 550 1262 550.855 1262 551.911C1262 552.966 1262.86 553.821 1263.91 553.821ZM27.8213 1138.91C27.8213 1139.97 26.9659 1140.82 25.9106 1140.82C24.8554 1140.82 24 1139.97 24 1138.91C24 1137.86 24.8554 1137 25.9106 1137C26.9659 1137 27.8213 1137.86 27.8213 1138.91ZM814.911 2438.82C815.966 2438.82 816.821 2437.97 816.821 2436.91C816.821 2435.86 815.966 2435 814.911 2435C813.855 2435 813 2435.86 813 2436.91C813 2437.97 813.855 2438.82 814.911 2438.82ZM384.821 168.911C384.821 169.966 383.966 170.821 382.911 170.821C381.855 170.821 381 169.966 381 168.911C381 167.855 381.855 167 382.911 167C383.966 167 384.821 167.855 384.821 168.911ZM158.911 95.8213C159.966 95.8213 160.821 94.9659 160.821 93.9106C160.821 92.8554 159.966 92 158.911 92C157.855 92 157 92.8554 157 93.9106C157 94.9659 157.855 95.8213 158.911 95.8213ZM554.821 109.911C554.821 110.966 553.966 111.821 552.911 111.821C551.855 111.821 551 110.966 551 109.911C551 108.855 551.855 108 552.911 108C553.966 108 554.821 108.855 554.821 109.911ZM971.911 91.8213C972.966 91.8213 973.821 90.9659 973.821 89.9106C973.821 88.8554 972.966 88 971.911 88C970.855 88 970 88.8554 970 89.9106C970 90.9659 970.855 91.8213 971.911 91.8213ZM1213.26 774.178C1212.21 774.08 1211.28 774.852 1211.18 775.903C1211.08 776.953 1211.85 777.884 1212.9 777.983C1213.95 778.081 1214.88 777.308 1214.98 776.258C1215.08 775.207 1214.31 774.276 1213.26 774.178ZM1194.18 1527.9C1194.28 1526.85 1195.21 1526.08 1196.26 1526.18C1197.31 1526.28 1198.08 1527.21 1197.98 1528.26C1197.88 1529.31 1196.95 1530.08 1195.9 1529.98C1194.85 1529.88 1194.08 1528.95 1194.18 1527.9ZM261.903 2696.98C262.953 2697.08 263.884 2696.31 263.983 2695.26C264.081 2694.21 263.309 2693.28 262.258 2693.18C261.207 2693.08 260.276 2693.85 260.178 2694.9C260.08 2695.95 260.852 2696.88 261.903 2696.98ZM860.178 949.903C860.276 948.852 861.207 948.08 862.258 948.178C863.308 948.276 864.08 949.207 863.982 950.258C863.884 951.308 862.953 952.081 861.902 951.983C860.852 951.884 860.079 950.953 860.178 949.903ZM379.258 868.178C378.207 868.08 377.276 868.852 377.178 869.903C377.079 870.953 377.852 871.884 378.902 871.983C379.953 872.081 380.884 871.308 380.982 870.258C381.08 869.207 380.308 868.276 379.258 868.178ZM353.178 1594.9C353.276 1593.85 354.207 1593.08 355.258 1593.18C356.308 1593.28 357.08 1594.21 356.982 1595.26C356.884 1596.31 355.953 1597.08 354.902 1596.98C353.852 1596.88 353.079 1595.95 353.178 1594.9ZM429.258 1024.18C428.207 1024.08 427.276 1024.85 427.178 1025.9C427.079 1026.95 427.852 1027.88 428.902 1027.98C429.953 1028.08 430.884 1027.31 430.982 1026.26C431.08 1025.21 430.308 1024.28 429.258 1024.18ZM100.911 211.821C101.966 211.821 102.821 210.966 102.821 209.911C102.821 208.855 101.966 208 100.911 208C99.8554 208 99 208.855 99 209.911C99 210.966 99.8554 211.821 100.911 211.821ZM3.82129 20.9106C3.82129 21.9659 2.96587 22.8213 1.91065 22.8213C0.855426 22.8213 0 21.9659 0 20.9106C0 19.8554 0.855426 19 1.91065 19C2.96587 19 3.82129 19.8554 3.82129 20.9106ZM678.911 174.821C679.966 174.821 680.821 173.966 680.821 172.911C680.821 171.855 679.966 171 678.911 171C677.855 171 677 171.855 677 172.911C677 173.966 677.855 174.821 678.911 174.821Z" fill="#A8E73F"/>
</svg>
