<svg width="500" height="400" viewBox="0 0 500 400" fill="none" xmlns="http://www.w3.org/2000/svg">
<rect width="500" height="400" rx="30" fill="#CE4DF0"/>
<path d="M55.4824 166.055C55.4824 161.199 55.4824 155.876 55.4824 150.086C55.4824 144.203 55.5291 138.133 55.6225 131.876C55.8093 125.526 56.0894 119.129 56.463 112.686C56.8365 106.242 57.3501 100.032 58.0038 94.0554C58.1906 92.4679 58.3307 90.6936 58.424 88.7325C58.6108 86.6781 58.9843 84.7637 59.5446 82.9894C60.105 81.1217 60.9454 79.5809 62.066 78.3669C63.1866 77.1529 64.8675 76.5459 67.1088 76.5459C68.4161 76.5459 69.7235 76.5459 71.0309 76.5459C72.3383 76.4525 73.6457 76.4058 74.953 76.4058H79.0152C88.8206 76.4058 96.5248 77.433 102.128 79.4875C107.824 81.4485 112.12 84.5302 115.015 88.7325C118.003 92.9348 119.871 98.2577 120.618 104.701C121.458 111.145 121.879 118.802 121.879 127.674C121.879 139.72 121.038 149.339 119.357 156.529C117.676 163.627 114.735 169.043 110.532 172.778C106.33 176.42 100.68 178.755 93.5832 179.782C86.486 180.903 77.5211 181.463 66.6885 181.463C64.1672 181.463 62.1594 181.043 60.6653 180.202C59.1711 179.362 58.0505 178.241 57.3034 176.84C56.5564 175.44 56.0427 173.805 55.7626 171.938C55.5758 170.07 55.4824 168.109 55.4824 166.055ZM83.2175 93.215C83.1241 93.215 82.844 93.2616 82.3771 93.355C82.0035 93.355 81.5833 93.4951 81.1164 93.7753C80.7429 93.962 80.3693 94.2889 79.9958 94.7558C79.6222 95.2227 79.3421 95.8297 79.1553 96.5768C78.0347 102.647 77.2409 108.903 76.774 115.347C76.3071 121.791 76.027 128.094 75.9336 134.257C75.9336 140.421 75.9803 146.304 76.0736 151.907C76.167 157.51 76.2137 162.506 76.2137 166.895C76.2137 168.483 76.5406 169.603 77.1943 170.257C77.8479 170.817 79.0619 171.097 80.8362 171.097H83.0775C91.6688 171.097 98.159 167.549 102.548 160.452C107.03 153.261 109.272 142.989 109.272 129.635C109.272 122.351 109.132 116.374 108.851 111.705C108.571 106.942 107.591 103.207 105.91 100.499C104.322 97.7908 101.754 95.9231 98.2057 94.8959C94.7505 93.7753 89.7544 93.215 83.2175 93.215ZM152.29 131.316V132.016C152.29 139.3 152.431 145.417 152.711 150.366C152.991 155.315 153.691 159.331 154.812 162.413C155.932 165.401 157.567 167.595 159.714 168.996C161.956 170.304 164.991 170.957 168.819 170.957C172.461 170.957 175.31 170.584 177.364 169.837C179.512 169.09 181.099 167.782 182.127 165.915C183.247 163.953 183.948 161.385 184.228 158.21C184.601 155.035 184.788 151.02 184.788 146.164C184.788 142.709 185.068 140.281 185.629 138.88C186.189 137.386 187.823 136.639 190.531 136.639C193.053 136.639 194.593 137.246 195.154 138.46C195.714 139.674 195.994 141.635 195.994 144.343C195.994 151.627 195.761 157.743 195.294 162.693C194.827 167.549 193.66 171.471 191.792 174.459C189.924 177.447 187.169 179.549 183.527 180.763C179.979 182.07 175.029 182.724 168.679 182.724C159.808 182.724 152.804 182.07 147.668 180.763C142.532 179.549 138.656 177.167 136.042 173.619C133.52 170.07 131.886 165.167 131.139 158.911C130.485 152.654 130.158 144.483 130.158 134.397C130.158 123.658 130.439 114.553 130.999 107.082C131.653 99.6118 133.193 93.5418 135.621 88.8726C138.049 84.11 141.645 80.6548 146.407 78.5069C151.263 76.3591 157.847 75.2852 166.158 75.2852C170.921 75.2852 174.889 75.7521 178.064 76.686C181.333 77.6198 183.948 79.1606 185.909 81.3085C187.87 83.4563 189.224 86.2111 189.971 89.573C190.811 92.9348 191.232 97.0904 191.232 102.04C191.232 107.83 190.765 112.686 189.831 116.608C188.99 120.436 187.45 123.518 185.208 125.853C183.061 128.187 180.119 129.868 176.384 130.895C172.742 131.829 168.072 132.296 162.376 132.296C158.827 132.296 155.465 131.969 152.29 131.316ZM167.699 92.2344C164.337 92.2344 161.676 92.5613 159.714 93.215C157.753 93.8686 156.213 95.2227 155.092 97.2772C154.065 99.2382 153.364 102.086 152.991 105.822C152.617 109.464 152.384 114.32 152.29 120.39C153.878 120.857 155.419 121.23 156.913 121.51C158.5 121.791 160.088 121.931 161.676 121.931C165.411 121.931 168.446 121.604 170.78 120.95C173.115 120.296 174.889 119.222 176.103 117.728C177.411 116.141 178.251 114.086 178.625 111.565C179.092 108.95 179.325 105.682 179.325 101.76C179.325 99.7985 179.138 98.211 178.765 96.997C178.391 95.6896 177.738 94.7091 176.804 94.0554C175.963 93.3083 174.796 92.8414 173.302 92.6546C171.808 92.3745 169.94 92.2344 167.699 92.2344ZM225.771 182.584C220.635 182.584 216.433 182.257 213.164 181.603C209.989 180.949 207.468 179.782 205.6 178.101C203.733 176.514 202.425 174.319 201.678 171.518C201.025 168.716 200.698 165.167 200.698 160.872C200.698 156.109 200.978 152.094 201.538 148.825C202.192 145.463 202.939 142.662 203.779 140.421C204.713 138.179 205.694 136.358 206.721 134.958C207.748 133.557 208.635 132.436 209.382 131.596C211.157 129.541 212.324 128.327 212.884 127.954C213.445 127.487 214.052 127.253 214.705 127.253C216.666 127.253 218.347 127.814 219.748 128.934C221.242 130.055 221.989 131.456 221.989 133.137C221.989 133.51 221.849 133.93 221.569 134.397C221.382 134.771 220.775 135.658 219.748 137.059C219.001 137.993 218.254 139.02 217.507 140.14C216.853 141.168 216.246 142.382 215.686 143.782C215.126 145.183 214.659 146.911 214.285 148.965C213.912 150.926 213.725 153.354 213.725 156.249C213.725 158.957 213.912 161.292 214.285 163.253C214.752 165.214 215.546 166.848 216.666 168.156C217.787 169.463 219.375 170.444 221.429 171.097C223.483 171.658 226.098 171.938 229.273 171.938C234.69 171.938 238.612 171.004 241.04 169.136C243.561 167.175 244.822 163.72 244.822 158.771C244.822 153.821 243.748 149.479 241.6 145.744C239.546 142.008 236.931 138.506 233.756 135.238C230.581 131.969 227.172 128.794 223.53 125.713C219.888 122.631 216.48 119.316 213.305 115.767C210.129 112.219 207.468 108.296 205.32 104.001C203.266 99.6118 202.239 94.5223 202.239 88.7325C202.239 85.1839 202.705 82.1489 203.639 79.6276C204.667 77.1062 206.301 75.0517 208.542 73.4642C210.877 71.7833 213.912 70.5693 217.647 69.8222C221.476 69.0752 226.192 68.7016 231.795 68.7016C237.118 68.7016 241.507 69.1218 244.962 69.9623C248.51 70.7094 251.359 72.1568 253.506 74.3047C255.654 76.4525 257.148 79.4408 257.989 83.2695C258.923 87.0983 259.39 92.0476 259.39 98.1176C259.39 99.9853 259.156 101.246 258.689 101.9C258.316 102.46 257.008 102.74 254.767 102.74C251.872 102.74 250.145 102.367 249.584 101.62C249.024 100.779 248.744 99.5184 248.744 97.8375C248.744 94.7558 248.51 92.3745 248.043 90.6936C247.577 88.9193 246.829 87.6119 245.802 86.7714C244.775 85.8376 243.468 85.2773 241.88 85.0905C240.293 84.8104 238.425 84.6703 236.277 84.6703C233.476 84.6703 231.141 84.8104 229.273 85.0905C227.499 85.2773 226.098 85.6508 225.071 86.2111C224.044 86.7714 223.343 87.5185 222.97 88.4524C222.596 89.2928 222.41 90.4134 222.41 91.8142C222.41 95.176 223.297 98.1643 225.071 100.779C226.845 103.394 229.04 105.962 231.655 108.483C234.363 110.911 237.258 113.526 240.339 116.328C243.514 119.036 246.409 122.211 249.024 125.853C251.732 129.495 253.973 133.79 255.748 138.74C257.522 143.689 258.409 149.572 258.409 156.389C258.409 161.432 257.849 165.634 256.728 168.996C255.608 172.265 253.74 174.926 251.125 176.981C248.51 179.035 245.149 180.482 241.04 181.323C236.931 182.163 231.841 182.584 225.771 182.584ZM267.678 77.2463C267.678 72.4837 268.472 69.1685 270.06 67.3009C271.647 65.4332 274.682 64.4993 279.164 64.4993C283.647 64.4993 286.775 65.3865 288.55 67.1608C290.324 68.9351 291.211 71.9234 291.211 76.1256C291.211 80.5147 290.23 83.7832 288.269 85.931C286.308 87.9854 282.806 89.0127 277.764 89.0127C273.935 89.0127 271.274 88.2189 269.779 86.6314C268.379 84.9505 267.678 81.8221 267.678 77.2463ZM278.044 96.2966C280.378 96.2966 282.246 96.4834 283.647 96.8569C285.048 97.2305 286.122 98.1643 286.869 99.6585C287.709 101.059 288.269 103.3 288.55 106.382C288.83 109.37 289.016 113.526 289.11 118.849C289.11 121.557 289.11 125.106 289.11 129.495C289.203 133.79 289.25 138.179 289.25 142.662C289.25 147.144 289.25 151.347 289.25 155.269C289.343 159.097 289.39 161.946 289.39 163.813C289.483 167.736 289.39 170.864 289.11 173.198C288.923 175.533 288.503 177.307 287.849 178.521C287.196 179.735 286.262 180.529 285.048 180.903C283.927 181.276 282.433 181.463 280.565 181.463C277.857 181.463 275.756 181.183 274.262 180.623C272.768 180.156 271.647 179.409 270.9 178.381C270.246 177.354 269.826 176.093 269.639 174.599C269.453 173.012 269.359 171.191 269.359 169.136C269.266 163.16 269.172 157.743 269.079 152.887C269.079 147.938 269.079 143.269 269.079 138.88C269.079 134.397 269.079 130.055 269.079 125.853C269.079 121.65 269.032 117.308 268.939 112.826C268.846 108.997 268.799 106.009 268.799 103.861C268.892 101.62 269.172 99.9386 269.639 98.818C270.2 97.6974 271.133 96.997 272.441 96.7169C273.748 96.4367 275.616 96.2966 278.044 96.2966ZM366.742 95.176C366.742 96.9503 366.368 98.4912 365.621 99.7985C364.967 101.106 363.66 101.76 361.699 101.76C359.831 101.76 358.29 101.713 357.076 101.62C355.956 101.433 355.022 101.059 354.275 100.499C353.621 99.9386 353.154 99.1915 352.874 98.2577C352.687 97.2305 352.594 95.8764 352.594 94.1955C352.594 91.2072 351.52 88.8726 349.372 87.1917C347.318 85.4174 343.536 84.5302 338.026 84.5302C334.011 84.5302 330.882 85.324 328.641 86.9115C326.4 88.4991 324.765 91.1138 323.738 94.7558C322.804 98.3978 322.244 103.16 322.057 109.044C321.871 114.927 321.777 122.164 321.777 130.755C321.777 137.199 322.384 142.989 323.598 148.125C324.906 153.168 326.633 157.51 328.781 161.152C331.022 164.701 333.544 167.455 336.345 169.416C339.24 171.284 342.275 172.218 345.45 172.218C347.971 172.218 350.026 171.658 351.613 170.537C353.294 169.416 354.602 167.969 355.536 166.195C356.563 164.42 357.263 162.413 357.637 160.171C358.104 157.837 358.384 155.502 358.477 153.168C358.571 150.833 358.571 148.592 358.477 146.444C358.477 144.203 358.477 142.288 358.477 140.701C358.477 137.806 358.057 136.078 357.216 135.518C356.376 134.864 354.882 134.771 352.734 135.238C350.866 135.611 348.719 136.125 346.291 136.779C343.956 137.339 341.808 137.619 339.847 137.619C337.699 137.619 335.925 137.386 334.524 136.919C333.217 136.452 332.563 135.098 332.563 132.857C332.563 130.709 333.263 129.308 334.664 128.654C336.158 128.001 337.699 127.58 339.287 127.394C343.396 126.927 347.318 126.32 351.053 125.573C354.882 124.825 358.897 124.218 363.1 123.752C364.874 123.565 366.228 123.798 367.162 124.452C368.096 125.012 368.749 125.946 369.123 127.253C369.59 128.561 369.823 130.242 369.823 132.296C369.917 134.351 369.963 136.685 369.963 139.3C369.963 144.249 369.59 149.292 368.843 154.428C368.189 159.564 366.742 164.234 364.5 168.436C362.259 172.638 359.084 176.047 354.975 178.661C350.866 181.37 345.403 182.724 338.586 182.724C332.61 182.724 327.193 181.603 322.337 179.362C317.575 177.121 313.513 173.759 310.151 169.276C306.789 164.701 304.174 159.051 302.307 152.327C300.532 145.603 299.645 137.759 299.645 128.794C299.645 118.335 300.019 109.37 300.766 101.9C301.513 94.4289 303.194 88.3123 305.808 83.5497C308.517 78.7871 312.392 75.2852 317.435 73.044C322.478 70.8028 329.295 69.6821 337.886 69.6821C341.808 69.6821 345.497 70.2424 348.952 71.3631C352.407 72.3903 355.442 73.9778 358.057 76.1256C360.765 78.2735 362.866 80.9349 364.36 84.11C365.948 87.2851 366.742 90.9737 366.742 95.176ZM387.006 79.0673C389.434 79.0673 391.301 79.5342 392.609 80.468C393.916 81.3085 394.897 82.4758 395.55 83.9699C396.204 85.3707 396.578 87.0049 396.671 88.8726C396.764 90.6469 396.811 92.4679 396.811 94.3356V118.849C397.838 114.74 398.912 110.818 400.033 107.082C401.153 103.254 402.227 99.7985 403.254 96.7169C404.375 93.6352 405.402 91.0204 406.336 88.8726C407.27 86.6314 408.064 85.0905 408.717 84.2501C409.465 83.2228 410.212 82.3824 410.959 81.7287C411.799 81.075 412.733 80.5614 413.76 80.1879C414.787 79.8143 416.048 79.5342 417.542 79.3474C419.13 79.1606 421.044 79.0673 423.285 79.0673C425.807 79.0673 428.188 79.4408 430.429 80.1879C432.67 80.9349 434.585 82.289 436.172 84.2501C437.853 86.1178 439.161 88.7792 440.095 92.2344C441.028 95.5962 441.495 99.9386 441.495 105.262V112.826C441.495 120.67 441.542 128.421 441.635 136.078C441.822 143.736 441.916 151.487 441.916 159.331V171.097C441.916 174.179 441.495 176.42 440.655 177.821C439.814 179.315 437.713 180.062 434.351 180.062C432.764 180.062 431.503 179.875 430.569 179.502C429.729 179.128 429.075 178.428 428.608 177.401C428.235 176.467 428.001 175.113 427.908 173.339C427.815 171.564 427.768 169.323 427.768 166.615V150.786C427.768 147.424 427.768 144.576 427.768 142.242C427.861 139.907 427.908 137.666 427.908 135.518C428.001 133.37 428.048 131.129 428.048 128.794C428.141 126.46 428.188 123.611 428.188 120.25C428.188 115.861 428.095 112.359 427.908 109.744C427.721 107.036 427.301 104.981 426.647 103.581C426.087 102.086 425.153 101.106 423.846 100.639C422.632 100.172 420.904 99.9386 418.663 99.9386C417.075 99.9386 415.534 100.779 414.04 102.46C412.64 104.048 411.239 106.242 409.838 109.044C408.531 111.845 407.27 115.114 406.056 118.849C404.935 122.584 403.815 126.6 402.694 130.895C401.574 135.191 400.546 139.627 399.612 144.203C398.679 148.685 397.745 153.121 396.811 157.51C396.811 163.953 396.718 168.716 396.531 171.798C396.437 174.786 396.111 176.794 395.55 177.821C394.99 178.942 394.15 179.409 393.029 179.222C391.908 179.035 390.367 178.942 388.406 178.942C385.698 178.942 383.317 178.195 381.263 176.7C379.208 175.3 378.181 173.105 378.181 170.117C378.181 167.409 378.181 165.214 378.181 163.533C378.181 161.759 378.181 160.171 378.181 158.771C378.181 157.276 378.181 155.689 378.181 154.008C378.181 152.234 378.181 149.993 378.181 147.284C378.181 143.736 378.087 140.234 377.901 136.779C377.807 133.323 377.761 129.822 377.761 126.273V93.4951C377.761 91.7208 377.807 89.9932 377.901 88.3123C377.994 86.538 378.321 84.9971 378.881 83.6898C379.442 82.289 380.329 81.1684 381.543 80.3279C382.85 79.4875 384.671 79.0673 387.006 79.0673Z" fill="#DFFF1B"/>
<path d="M98.8397 253.997C98.8397 252.139 98.8397 249.404 98.8397 245.792C98.9429 242.179 98.8913 238.463 98.6849 234.644C98.4785 230.722 98.0656 227.11 97.4463 223.807C96.9303 220.401 96.0013 217.975 94.6595 216.53C93.8338 215.601 92.8017 215.034 91.5631 214.827C90.3246 214.518 89.1376 214.363 88.0022 214.363C82.4287 214.363 78.1969 215.189 75.3069 216.84C72.5201 218.388 70.5075 220.349 69.2689 222.723C68.0303 225.097 67.3594 227.678 67.2562 230.464C67.153 233.148 66.9982 235.677 66.7917 238.051C66.5853 240.424 66.0693 242.437 65.2435 244.089C64.521 245.637 62.9212 246.411 60.4441 246.411C57.7605 246.411 56.0575 245.534 55.335 243.779C54.7157 242.024 54.4061 240.063 54.4061 237.896C54.4061 231.084 54.7157 225.149 55.335 220.091C56.0575 214.931 57.5541 210.647 59.8248 207.241C62.1987 203.835 65.6048 201.306 70.043 199.655C74.5844 198.004 80.6224 197.178 88.1571 197.178C92.9049 197.178 97.1883 197.436 101.007 197.952C104.826 198.365 108.129 199.397 110.916 201.048C113.703 202.597 115.973 204.919 117.728 208.015C119.586 211.008 120.928 215.085 121.753 220.246C122.579 225.2 123.043 230.258 123.147 235.419C123.25 240.476 123.301 245.534 123.301 250.591C123.301 251.83 123.25 254.204 123.147 257.713C123.043 261.119 122.889 265.041 122.682 269.479C122.579 273.917 122.424 278.614 122.218 283.568C122.011 288.522 121.805 293.167 121.598 297.502C121.392 301.734 121.186 305.398 120.979 308.494C120.876 311.694 120.721 313.655 120.515 314.377C120.411 315.203 119.999 315.874 119.276 316.39C118.657 316.906 117.883 317.319 116.954 317.629C116.128 317.938 115.199 318.145 114.167 318.248C113.135 318.351 112.206 318.403 111.38 318.403C109.626 318.403 108.129 317.99 106.89 317.164C105.652 316.442 104.568 315.461 103.639 314.223C102.813 313.087 102.143 311.797 101.626 310.352C101.11 308.907 100.698 307.462 100.388 306.017C98.3236 308.804 95.7949 311.126 92.8017 312.984C89.9117 314.945 86.8153 315.926 83.5124 315.926C78.1453 315.926 73.6555 315.358 70.043 314.223C66.5337 313.087 63.6953 311.281 61.5278 308.804C59.4636 306.43 57.9669 303.385 57.038 299.669C56.2123 295.954 55.7995 291.515 55.7995 286.355C55.7995 279.749 56.1607 274.279 56.8832 269.944C57.7089 265.609 59.2571 262.203 61.5278 259.726C63.9018 257.145 67.153 255.391 71.2816 254.462C75.4101 253.429 80.8805 252.913 87.6926 252.913C89.5504 252.913 91.4083 253.017 93.2661 253.223C95.124 253.429 96.9819 253.687 98.8397 253.997ZM98.5301 286.355C98.3236 283.465 98.2204 280.781 98.2204 278.304C98.2204 275.827 98.2204 273.866 98.2204 272.421C98.2204 271.285 98.2204 270.202 98.2204 269.17C98.2204 268.137 98.272 267.054 98.3752 265.918C96.7238 265.402 95.0724 265.041 93.421 264.835C91.8728 264.525 90.2213 264.37 88.4667 264.37C83.7189 264.37 80.0031 264.68 77.3196 265.299C74.7392 265.918 72.8298 267.054 71.5912 268.705C70.3526 270.357 69.5785 272.627 69.2689 275.517C69.0625 278.407 68.9592 282.123 68.9592 286.664C68.9592 289.038 69.1141 291.206 69.4237 293.167C69.7333 295.025 70.301 296.625 71.1267 297.966C72.0557 299.205 73.2942 300.185 74.8424 300.908C76.4939 301.527 78.6614 301.837 81.3449 301.837C83.9253 301.837 86.1444 301.476 88.0022 300.753C89.8601 300.031 91.4083 298.998 92.6469 297.657C93.9886 296.315 95.124 294.715 96.0529 292.857C96.9819 290.999 97.756 288.987 98.3752 286.819C98.3752 286.716 98.3752 286.664 98.3752 286.664C98.4785 286.561 98.5301 286.458 98.5301 286.355ZM159.673 259.88C159.673 269.273 159.828 276.807 160.138 282.484C160.448 288.058 161.015 292.393 161.841 295.489C162.667 298.482 163.75 300.495 165.092 301.527C166.434 302.456 168.085 302.921 170.047 302.921C173.453 302.921 176.136 302.508 178.097 301.682C180.058 300.856 181.555 299.411 182.587 297.347C183.722 295.18 184.445 292.341 184.755 288.832C185.064 285.323 185.219 280.884 185.219 275.517C185.219 271.698 185.529 269.015 186.148 267.467C186.767 265.815 188.573 264.989 191.567 264.989C194.353 264.989 196.056 265.66 196.676 267.002C197.295 268.344 197.605 270.511 197.605 273.505C197.605 281.555 197.347 288.316 196.831 293.786C196.314 299.153 195.024 303.488 192.96 306.791C190.896 310.094 187.851 312.416 183.826 313.758C179.903 315.203 174.433 315.926 167.415 315.926C160.809 315.926 155.442 315.203 151.313 313.758C147.288 312.416 144.14 309.784 141.869 305.862C139.702 301.94 138.257 296.521 137.534 289.606C136.812 282.691 136.45 273.659 136.45 262.512C136.45 259.416 136.502 255.494 136.605 250.746C136.708 245.998 136.812 240.992 136.915 235.728C137.018 230.361 137.121 224.942 137.224 219.472C137.328 213.898 137.379 208.738 137.379 203.99C137.379 201.926 138.205 200.532 139.856 199.81C141.611 198.984 144.295 198.571 147.907 198.571C152.242 198.571 155.39 198.984 157.351 199.81C159.312 200.635 160.293 202.235 160.293 204.609C160.293 207.19 160.293 209.976 160.293 212.97C160.293 215.86 160.241 218.853 160.138 221.949C161.789 221.949 163.389 221.949 164.937 221.949C166.486 221.846 168.085 221.794 169.737 221.794H187.851C190.947 221.794 193.166 222.207 194.508 223.033C195.953 223.755 196.676 225.82 196.676 229.226C196.676 230.671 196.366 231.806 195.747 232.632C195.231 233.354 194.56 233.87 193.734 234.18C192.908 234.49 191.928 234.696 190.793 234.799C189.76 234.799 188.677 234.799 187.541 234.799C182.484 234.799 177.891 234.851 173.762 234.954C169.634 235.057 165.041 235.057 159.983 234.954C159.88 239.496 159.777 243.882 159.673 248.114C159.673 252.346 159.673 256.268 159.673 259.88ZM219.205 314.532C216.418 314.532 214.25 314.326 212.702 313.913C211.154 313.5 210.019 312.623 209.296 311.281C208.574 310.042 208.161 308.288 208.057 306.017C207.954 303.643 207.954 300.547 208.057 296.728C208.574 282.071 209.141 267.518 209.761 253.068C210.483 238.618 211.102 224.065 211.618 209.409C211.825 205.383 212.909 202.751 214.87 201.513C216.831 200.274 220.082 199.655 224.623 199.655C229.268 199.655 232.261 200.635 233.603 202.597C235.048 204.558 235.667 208.015 235.461 212.97C235.254 219.782 234.945 226.645 234.532 233.561C234.222 240.373 233.809 247.185 233.293 253.997C238.248 253.171 243.305 252.449 248.466 251.83C253.73 251.107 258.787 250.436 263.638 249.817C263.845 242.902 264 235.986 264.103 229.071C264.206 222.156 264.258 215.24 264.258 208.325C264.258 206.261 264.361 204.661 264.567 203.525C264.877 202.39 265.29 201.564 265.806 201.048C266.425 200.429 267.199 200.068 268.128 199.965C269.16 199.758 270.347 199.655 271.689 199.655C273.444 199.655 274.785 199.758 275.714 199.965C276.746 200.171 277.469 200.635 277.882 201.358C278.398 202.08 278.708 203.113 278.811 204.454C279.017 205.796 279.12 207.551 279.12 209.718C279.12 224.891 278.914 240.012 278.501 255.081C278.088 270.047 277.882 285.116 277.882 300.289C277.882 303.179 277.882 305.553 277.882 307.41C277.985 309.268 277.779 310.713 277.263 311.745C276.85 312.778 276.024 313.5 274.785 313.913C273.547 314.326 271.689 314.532 269.212 314.532C267.664 314.532 266.425 314.377 265.496 314.068C264.67 313.861 264 313.345 263.483 312.519C263.071 311.694 262.813 310.558 262.709 309.113C262.606 307.668 262.555 305.759 262.555 303.385C262.555 301.011 262.606 298.74 262.709 296.573C262.916 294.302 263.019 291.98 263.019 289.606C263.019 285.271 263.019 280.988 263.019 276.756C263.122 272.421 263.225 268.086 263.329 263.751C260.026 264.164 256.723 264.577 253.42 264.989C250.22 265.299 246.969 265.66 243.666 266.073L232.364 267.621C232.055 272.885 231.745 278.098 231.435 283.258C231.229 288.316 231.023 293.476 230.816 298.74C230.713 302.146 230.507 304.933 230.197 307.101C229.887 309.165 229.32 310.713 228.494 311.745C227.771 312.881 226.636 313.603 225.088 313.913C223.643 314.326 221.682 314.532 219.205 314.532ZM288.938 255.236C289.145 243.366 289.867 233.354 291.106 225.2C292.447 216.943 294.667 210.286 297.763 205.228C300.859 200.068 305.04 196.352 310.303 194.081C315.567 191.707 322.276 190.52 330.43 190.52C338.171 190.52 344.416 192.12 349.164 195.32C353.911 198.416 357.524 202.855 360.001 208.635C362.581 214.311 364.233 221.175 364.955 229.226C365.781 237.276 366.091 246.204 365.884 256.01C365.678 265.815 365.007 274.537 363.872 282.175C362.839 289.709 360.93 296.057 358.143 301.218C355.356 306.378 351.538 310.249 346.686 312.829C341.835 315.513 335.591 316.854 327.953 316.854C319.49 316.854 312.626 315.874 307.362 313.913C302.201 311.952 298.227 308.597 295.441 303.85C292.654 299.102 290.796 292.806 289.867 284.961C289.041 277.014 288.732 267.105 288.938 255.236ZM309.684 255.855C309.581 265.454 309.787 273.453 310.303 279.852C310.923 286.148 312.007 291.206 313.555 295.025C315.206 298.74 317.374 301.372 320.057 302.921C322.741 304.366 326.095 305.088 330.121 305.088C334.146 305.088 337.5 304.262 340.184 302.611C342.868 300.96 344.983 298.276 346.532 294.56C348.183 290.845 349.37 285.993 350.093 280.007C350.918 273.917 351.383 266.486 351.486 257.713C351.692 248.94 351.434 241.405 350.712 235.109C350.093 228.813 348.957 223.652 347.306 219.627C345.654 215.602 343.435 212.66 340.648 210.802C337.862 208.841 334.456 207.86 330.43 207.86C326.405 207.86 323.05 208.583 320.367 210.028C317.787 211.37 315.722 213.847 314.174 217.459C312.626 221.072 311.542 225.975 310.923 232.167C310.303 238.36 309.891 246.256 309.684 255.855ZM382.913 201.358C385.597 201.358 387.661 201.874 389.106 202.906C390.551 203.835 391.635 205.125 392.357 206.777C393.08 208.325 393.493 210.131 393.596 212.195C393.699 214.157 393.751 216.169 393.751 218.233V245.327C394.886 240.786 396.073 236.451 397.312 232.322C398.55 228.09 399.737 224.271 400.873 220.865C402.111 217.459 403.247 214.569 404.279 212.195C405.311 209.718 406.188 208.015 406.911 207.086C407.736 205.951 408.562 205.022 409.388 204.3C410.317 203.577 411.349 203.009 412.484 202.597C413.62 202.184 415.013 201.874 416.664 201.668C418.419 201.461 420.535 201.358 423.012 201.358C425.799 201.358 428.431 201.771 430.908 202.597C433.385 203.422 435.501 204.919 437.256 207.086C439.113 209.151 440.558 212.092 441.591 215.911C442.623 219.627 443.139 224.426 443.139 230.31V238.67C443.139 247.34 443.19 255.907 443.294 264.37C443.5 272.834 443.603 281.4 443.603 290.07V303.075C443.603 306.481 443.139 308.959 442.21 310.507C441.281 312.158 438.959 312.984 435.243 312.984C433.488 312.984 432.095 312.778 431.063 312.365C430.134 311.952 429.411 311.178 428.895 310.042C428.482 309.01 428.224 307.514 428.121 305.553C428.018 303.591 427.966 301.114 427.966 298.121V280.626C427.966 276.911 427.966 273.763 427.966 271.182C428.07 268.602 428.121 266.125 428.121 263.751C428.224 261.377 428.276 258.9 428.276 256.319C428.379 253.739 428.431 250.591 428.431 246.875C428.431 242.024 428.328 238.154 428.121 235.264C427.915 232.271 427.45 230 426.728 228.452C426.108 226.8 425.076 225.716 423.631 225.2C422.29 224.684 420.38 224.426 417.903 224.426C416.148 224.426 414.445 225.355 412.794 227.213C411.246 228.968 409.697 231.393 408.149 234.49C406.704 237.586 405.311 241.199 403.969 245.327C402.73 249.456 401.492 253.894 400.253 258.642C399.015 263.39 397.879 268.292 396.847 273.35C395.815 278.304 394.783 283.207 393.751 288.058C393.751 295.18 393.648 300.443 393.441 303.85C393.338 307.152 392.977 309.371 392.357 310.507C391.738 311.745 390.809 312.261 389.571 312.055C388.332 311.849 386.629 311.745 384.462 311.745C381.468 311.745 378.836 310.92 376.566 309.268C374.295 307.72 373.16 305.295 373.16 301.992C373.16 298.998 373.16 296.573 373.16 294.715C373.16 292.754 373.16 290.999 373.16 289.451C373.16 287.8 373.16 286.045 373.16 284.187C373.16 282.226 373.16 279.749 373.16 276.756C373.16 272.834 373.056 268.963 372.85 265.144C372.747 261.325 372.695 257.455 372.695 253.533V217.305C372.695 215.343 372.747 213.434 372.85 211.576C372.953 209.615 373.314 207.912 373.934 206.467C374.553 204.919 375.534 203.68 376.875 202.751C378.32 201.822 380.333 201.358 382.913 201.358Z" fill="white"/>
<path d="M307.806 210.422L332.611 201.668L354.498 219.177L357.416 262.951L354.498 293.593C350.607 296.997 341.949 304.974 338.447 309.643C334.945 314.312 320.451 311.589 313.642 309.643L297.592 262.951L307.806 210.422Z" fill="white"/>
<path d="M304.417 224.349L319.299 225.602L316.967 253.298C316.965 253.32 316.967 253.341 316.973 253.362L320.883 267.37C320.93 267.539 320.732 267.668 320.596 267.557L311.761 260.286L307.146 256.201L302.711 252.13C302.202 250.643 302.329 249.154 302.329 249.154L304.417 224.349Z" fill="#232323"/>
<path d="M334.461 309.804C335.217 307.253 322.586 270.935 322.586 270.935L311.93 273.284L322.381 292.647C322.381 292.647 333.704 312.355 334.461 309.804Z" fill="#232323"/>
<path d="M283.612 211.251L363.176 217.951C365.437 218.141 367.116 220.129 366.926 222.391L365.839 235.293C365.839 235.293 365.921 234.327 365.744 236.426C365.567 238.525 363.152 240.991 363.152 240.991L352.223 231.258L352.526 227.66L352.515 227.793L282.714 221.915L283.612 211.251Z" fill="#232323"/>
<path d="M329.673 272.434C329.105 271.429 334.969 261.789 335.921 260.337C351.648 236.325 351.648 236.325 351.648 236.325L356.105 249.774C356.105 249.774 330.85 274.516 329.673 272.434Z" fill="#232323"/>
<path d="M283.612 211.251L363.176 217.951C365.437 218.141 367.116 220.129 366.926 222.391L366.915 222.508L282.82 220.641L283.612 211.251Z" fill="#292929"/>
<path d="M335.921 260.337L351.636 236.286L356.105 249.774L353.356 252.428L335.921 260.337Z" fill="#292929"/>
<path d="M334.458 309.803C335.225 307.254 322.586 270.935 322.586 270.935L315.786 272.436L322.381 292.647C322.381 292.647 333.69 312.352 334.458 309.803Z" fill="#292929"/>
<path d="M304.618 224.366L319.073 228.263L316.967 253.298C316.965 253.32 316.967 253.341 316.973 253.362L320.883 267.37C320.93 267.539 320.732 267.668 320.596 267.557L311.761 260.286L304.618 224.366Z" fill="#292929"/>
<path d="M303.531 254.711L321.978 270.118L309.759 272.837L303.531 254.711Z" fill="#171717"/>
<path d="M324.829 301.105L330.232 309.48L319.871 308.607L324.829 301.105Z" fill="#171717"/>
<path d="M306.644 263.774L320.212 268.643L321.978 270.118L309.759 272.837L306.644 263.774Z" fill="#151515"/>
<path d="M324.829 301.105L330.232 309.48L325.231 309.058L322.033 305.331L324.829 301.105Z" fill="#151515"/>
<path d="M351.184 231.477L364.747 243.348L358.726 256.121L351.184 231.477Z" fill="#151515"/>
<path d="M305.929 206.418L320.762 207.667L320.268 213.532L305.435 212.283L305.929 206.418Z" fill="#151515"/>
<path d="M352.128 234.558L364.747 243.348L362.166 248.828L352.128 234.558Z" fill="#171717"/>
</svg>
