<svg width="398" height="307" viewBox="0 0 398 307" fill="none" xmlns="http://www.w3.org/2000/svg">
<path d="M4.48244 119.904C4.48244 115.048 4.48244 109.725 4.48244 103.935C4.48244 98.0518 4.52913 91.9818 4.62252 85.7251C4.80928 79.375 5.08944 72.9782 5.46297 66.5347C5.83651 60.0912 6.35012 53.8811 7.00381 47.9045C7.19058 46.317 7.33066 44.5427 7.42404 42.5816C7.61081 40.5272 7.98434 38.6128 8.54465 36.8385C9.10495 34.9708 9.94541 33.43 11.066 32.216C12.1866 31.002 13.8675 30.395 16.1088 30.395C17.4161 30.395 18.7235 30.395 20.0309 30.395C21.3383 30.3016 22.6457 30.2549 23.953 30.2549H28.0152C37.8206 30.2549 45.5248 31.2822 51.1278 33.3366C56.8243 35.2977 61.1199 38.3793 64.0148 42.5816C67.0031 46.7839 68.8708 52.1068 69.6179 58.5503C70.4583 64.9938 70.8786 72.6513 70.8786 81.5228C70.8786 93.5694 70.0381 103.188 68.3572 110.379C66.6763 117.476 63.7347 122.892 59.5324 126.627C55.3301 130.269 49.6804 132.604 42.5832 133.631C35.486 134.752 26.5211 135.312 15.6885 135.312C13.1672 135.312 11.1594 134.892 9.66526 134.051C8.17111 133.211 7.0505 132.09 6.30343 130.69C5.55636 129.289 5.04274 127.655 4.76259 125.787C4.57582 123.919 4.48244 121.958 4.48244 119.904ZM32.2175 47.0641C32.1241 47.0641 31.844 47.1108 31.3771 47.2041C31.0035 47.2041 30.5833 47.3442 30.1164 47.6244C29.7429 47.8111 29.3693 48.138 28.9958 48.6049C28.6222 49.0718 28.3421 49.6788 28.1553 50.4259C27.0347 56.4959 26.2409 62.7526 25.774 69.1961C25.3071 75.6396 25.027 81.9431 24.9336 88.1064C24.9336 94.2698 24.9803 100.153 25.0736 105.756C25.167 111.359 25.2137 116.355 25.2137 120.744C25.2137 122.332 25.5406 123.452 26.1943 124.106C26.8479 124.666 28.0619 124.946 29.8362 124.946H32.0775C40.6688 124.946 47.159 121.398 51.5481 114.301C56.0305 107.11 58.2717 96.8378 58.2717 83.4839C58.2717 76.1999 58.1316 70.2233 57.8515 65.5541C57.5713 60.7915 56.5908 57.0562 54.9099 54.348C53.3224 51.6399 50.7543 49.7722 47.2057 48.745C43.7505 47.6244 38.7544 47.0641 32.2175 47.0641ZM101.29 85.1648V85.8652C101.29 93.1492 101.431 99.2658 101.711 104.215C101.991 109.165 102.691 113.18 103.812 116.262C104.932 119.25 106.567 121.445 108.714 122.845C110.956 124.153 113.991 124.806 117.819 124.806C121.461 124.806 124.31 124.433 126.364 123.686C128.512 122.939 130.099 121.631 131.127 119.764C132.247 117.803 132.948 115.235 133.228 112.059C133.601 108.884 133.788 104.869 133.788 100.013C133.788 96.5577 134.068 94.1297 134.629 92.7289C135.189 91.2348 136.823 90.4877 139.531 90.4877C142.053 90.4877 143.593 91.0947 144.154 92.3087C144.714 93.5227 144.994 95.4838 144.994 98.1919C144.994 105.476 144.761 111.593 144.294 116.542C143.827 121.398 142.66 125.32 140.792 128.308C138.924 131.297 136.169 133.398 132.527 134.612C128.979 135.919 124.029 136.573 117.679 136.573C108.808 136.573 101.804 135.919 96.6679 134.612C91.5318 133.398 87.6563 131.016 85.0416 127.468C82.5202 123.919 80.886 119.017 80.1389 112.76C79.4852 106.503 79.1584 98.332 79.1584 88.2465C79.1584 77.5073 79.4385 68.4024 79.9988 60.9316C80.6525 53.4609 82.1934 47.3909 84.6214 42.7217C87.0493 37.9591 90.6446 34.5039 95.4072 32.3561C100.263 30.2082 106.847 29.1343 115.158 29.1343C119.921 29.1343 123.889 29.6012 127.064 30.5351C130.333 31.4689 132.948 33.0098 134.909 35.1576C136.87 37.3054 138.224 40.0603 138.971 43.4221C139.811 46.7839 140.232 50.9395 140.232 55.8889C140.232 61.6787 139.765 66.5347 138.831 70.4568C137.99 74.2856 136.45 77.3672 134.208 79.7018C132.061 82.0364 129.119 83.7174 125.384 84.7446C121.742 85.6784 117.072 86.1453 111.376 86.1453C107.827 86.1453 104.465 85.8185 101.29 85.1648ZM116.699 46.0835C113.337 46.0835 110.676 46.4104 108.714 47.0641C106.753 47.7178 105.213 49.0718 104.092 51.1263C103.065 53.0874 102.364 55.9356 101.991 59.6709C101.617 63.3129 101.384 68.1689 101.29 74.2389C102.878 74.7058 104.419 75.0793 105.913 75.3595C107.5 75.6396 109.088 75.7797 110.676 75.7797C114.411 75.7797 117.446 75.4529 119.78 74.7992C122.115 74.1455 123.889 73.0716 125.103 71.5774C126.411 69.9899 127.251 67.9354 127.625 65.4141C128.092 62.7993 128.325 59.5309 128.325 55.6087C128.325 53.6477 128.138 52.0601 127.765 50.8461C127.391 49.5388 126.738 48.5582 125.804 47.9045C124.963 47.1575 123.796 46.6905 122.302 46.5038C120.808 46.2236 118.94 46.0835 116.699 46.0835ZM174.771 136.433C169.635 136.433 165.433 136.106 162.164 135.452C158.989 134.798 156.468 133.631 154.6 131.95C152.733 130.363 151.425 128.168 150.678 125.367C150.025 122.565 149.698 119.017 149.698 114.721C149.698 109.958 149.978 105.943 150.538 102.674C151.192 99.3125 151.939 96.511 152.779 94.2698C153.713 92.0285 154.694 90.2075 155.721 88.8068C156.748 87.406 157.635 86.2854 158.382 85.445C160.157 83.3905 161.324 82.1765 161.884 81.803C162.445 81.3361 163.052 81.1026 163.705 81.1026C165.666 81.1026 167.347 81.6629 168.748 82.7835C170.242 83.9041 170.989 85.3049 170.989 86.9858C170.989 87.3593 170.849 87.7796 170.569 88.2465C170.382 88.62 169.775 89.5072 168.748 90.9079C168.001 91.8418 167.254 92.869 166.507 93.9896C165.853 95.0168 165.246 96.2308 164.686 97.6316C164.126 99.0324 163.659 100.76 163.285 102.814C162.912 104.775 162.725 107.203 162.725 110.098C162.725 112.807 162.912 115.141 163.285 117.102C163.752 119.063 164.546 120.697 165.666 122.005C166.787 123.312 168.375 124.293 170.429 124.946C172.483 125.507 175.098 125.787 178.273 125.787C183.69 125.787 187.612 124.853 190.04 122.985C192.561 121.024 193.822 117.569 193.822 112.62C193.822 107.67 192.748 103.328 190.6 99.5927C188.546 95.8573 185.931 92.3554 182.756 89.0869C179.581 85.8185 176.172 82.6434 172.53 79.5618C168.888 76.4801 165.48 73.1649 162.305 69.6163C159.129 66.0677 156.468 62.1456 154.32 57.8499C152.266 53.4609 151.239 48.3714 151.239 42.5816C151.239 39.033 151.705 35.9981 152.639 33.4767C153.667 30.9553 155.301 28.9009 157.542 27.3133C159.877 25.6324 162.912 24.4184 166.647 23.6713C170.476 22.9243 175.192 22.5507 180.795 22.5507C186.118 22.5507 190.507 22.971 193.962 23.8114C197.51 24.5585 200.359 26.006 202.506 28.1538C204.654 30.3016 206.148 33.2899 206.989 37.1187C207.923 40.9474 208.39 45.8968 208.39 51.9667C208.39 53.8344 208.156 55.0951 207.689 55.7488C207.316 56.3091 206.008 56.5893 203.767 56.5893C200.872 56.5893 199.145 56.2157 198.584 55.4686C198.024 54.6282 197.744 53.3675 197.744 51.6866C197.744 48.6049 197.51 46.2236 197.043 44.5427C196.577 42.7684 195.829 41.461 194.802 40.6206C193.775 39.6867 192.468 39.1264 190.88 38.9396C189.293 38.6595 187.425 38.5194 185.277 38.5194C182.476 38.5194 180.141 38.6595 178.273 38.9396C176.499 39.1264 175.098 39.5 174.071 40.0603C173.044 40.6206 172.343 41.3676 171.97 42.3015C171.596 43.1419 171.41 44.2625 171.41 45.6633C171.41 49.0251 172.297 52.0134 174.071 54.6282C175.845 57.2429 178.04 59.811 180.655 62.3324C183.363 64.7604 186.258 67.3751 189.339 70.1766C192.514 72.8848 195.409 76.0599 198.024 79.7018C200.732 83.3438 202.973 87.6395 204.748 92.5888C206.522 97.5382 207.409 103.421 207.409 110.238C207.409 115.281 206.849 119.483 205.728 122.845C204.608 126.114 202.74 128.775 200.125 130.83C197.51 132.884 194.149 134.332 190.04 135.172C185.931 136.012 180.841 136.433 174.771 136.433ZM216.678 31.0954C216.678 26.3328 217.472 23.0177 219.06 21.15C220.647 19.2823 223.682 18.3484 228.164 18.3484C232.647 18.3484 235.775 19.2356 237.55 21.0099C239.324 22.7842 240.211 25.7725 240.211 29.9748C240.211 34.3638 239.23 37.6323 237.269 39.7801C235.308 41.8346 231.806 42.8618 226.764 42.8618C222.935 42.8618 220.274 42.068 218.779 40.4805C217.379 38.7996 216.678 35.6712 216.678 31.0954ZM227.044 50.1458C229.378 50.1458 231.246 50.3325 232.647 50.7061C234.048 51.0796 235.122 52.0134 235.869 53.5076C236.709 54.9083 237.269 57.1496 237.55 60.2312C237.83 63.2195 238.016 67.3751 238.11 72.698C238.11 75.4062 238.11 78.9548 238.11 83.3438C238.203 87.6395 238.25 92.0285 238.25 96.511C238.25 100.993 238.25 105.196 238.25 109.118C238.343 112.947 238.39 115.795 238.39 117.662C238.483 121.585 238.39 124.713 238.11 127.048C237.923 129.382 237.503 131.156 236.849 132.37C236.196 133.584 235.262 134.378 234.048 134.752C232.927 135.125 231.433 135.312 229.565 135.312C226.857 135.312 224.756 135.032 223.262 134.472C221.768 134.005 220.647 133.258 219.9 132.23C219.246 131.203 218.826 129.943 218.639 128.448C218.453 126.861 218.359 125.04 218.359 122.985C218.266 117.009 218.172 111.593 218.079 106.737C218.079 101.787 218.079 97.118 218.079 92.7289C218.079 88.2465 218.079 83.9041 218.079 79.7018C218.079 75.4995 218.032 71.1572 217.939 66.6747C217.846 62.846 217.799 59.8577 217.799 57.7099C217.892 55.4686 218.172 53.7877 218.639 52.6671C219.2 51.5465 220.133 50.8461 221.441 50.566C222.748 50.2858 224.616 50.1458 227.044 50.1458ZM315.742 49.0251C315.742 50.7994 315.368 52.3403 314.621 53.6477C313.967 54.955 312.66 55.6087 310.699 55.6087C308.831 55.6087 307.29 55.562 306.076 55.4686C304.956 55.2819 304.022 54.9083 303.275 54.348C302.621 53.7877 302.154 53.0407 301.874 52.1068C301.687 51.0796 301.594 49.7255 301.594 48.0446C301.594 45.0563 300.52 42.7217 298.372 41.0408C296.318 39.2665 292.536 38.3793 287.026 38.3793C283.011 38.3793 279.882 39.1731 277.641 40.7606C275.4 42.3482 273.765 44.9629 272.738 48.6049C271.804 52.2469 271.244 57.0095 271.057 62.8927C270.871 68.7759 270.777 76.0132 270.777 84.6045C270.777 91.048 271.384 96.8378 272.598 101.974C273.906 107.017 275.633 111.359 277.781 115.001C280.022 118.55 282.544 121.304 285.345 123.266C288.24 125.133 291.275 126.067 294.45 126.067C296.971 126.067 299.026 125.507 300.613 124.386C302.294 123.266 303.602 121.818 304.536 120.044C305.563 118.269 306.263 116.262 306.637 114.021C307.104 111.686 307.384 109.351 307.477 107.017C307.571 104.682 307.571 102.441 307.477 100.293C307.477 98.0518 307.477 96.1374 307.477 94.5499C307.477 91.655 307.057 89.9274 306.216 89.3671C305.376 88.7134 303.882 88.62 301.734 89.0869C299.866 89.4605 297.719 89.9741 295.291 90.6278C292.956 91.1881 290.808 91.4682 288.847 91.4682C286.699 91.4682 284.925 91.2348 283.524 90.7679C282.217 90.3009 281.563 88.9469 281.563 86.7056C281.563 84.5578 282.263 83.157 283.664 82.5034C285.158 81.8497 286.699 81.4294 288.287 81.2427C292.396 80.7758 296.318 80.1688 300.053 79.4217C303.882 78.6746 307.897 78.0676 312.1 77.6007C313.874 77.4139 315.228 77.6474 316.162 78.3011C317.096 78.8614 317.749 79.7952 318.123 81.1026C318.59 82.41 318.823 84.0909 318.823 86.1453C318.917 88.1998 318.963 90.5344 318.963 93.1491C318.963 98.0985 318.59 103.141 317.843 108.277C317.189 113.414 315.742 118.083 313.5 122.285C311.259 126.487 308.084 129.896 303.975 132.511C299.866 135.219 294.403 136.573 287.586 136.573C281.61 136.573 276.193 135.452 271.337 133.211C266.575 130.97 262.513 127.608 259.151 123.125C255.789 118.55 253.174 112.9 251.307 106.176C249.532 99.4526 248.645 91.6083 248.645 82.6434C248.645 72.1844 249.019 63.2195 249.766 55.7488C250.513 48.2781 252.194 42.1614 254.808 37.3988C257.517 32.6362 261.392 29.1343 266.435 26.8931C271.478 24.6519 278.295 23.5313 286.886 23.5313C290.808 23.5313 294.497 24.0916 297.952 25.2122C301.407 26.2394 304.442 27.8269 307.057 29.9748C309.765 32.1226 311.866 34.7841 313.36 37.9591C314.948 41.1342 315.742 44.8229 315.742 49.0251ZM336.006 32.9164C338.434 32.9164 340.301 33.3833 341.609 34.3171C342.916 35.1576 343.897 36.3249 344.55 37.819C345.204 39.2198 345.578 40.854 345.671 42.7217C345.764 44.496 345.811 46.317 345.811 48.1847V72.698C346.838 68.5891 347.912 64.667 349.033 60.9316C350.153 57.1029 351.227 53.6477 352.254 50.566C353.375 47.4843 354.402 44.8695 355.336 42.7217C356.27 40.4805 357.064 38.9397 357.717 38.0992C358.465 37.072 359.212 36.2315 359.959 35.5778C360.799 34.9241 361.733 34.4105 362.76 34.037C363.787 33.6634 365.048 33.3833 366.542 33.1965C368.13 33.0098 370.044 32.9164 372.285 32.9164C374.807 32.9164 377.188 33.2899 379.429 34.037C381.67 34.7841 383.585 36.1381 385.172 38.0992C386.853 39.9669 388.161 42.6283 389.095 46.0835C390.028 49.4454 390.495 53.7877 390.495 59.1106V66.6747C390.495 74.519 390.542 82.2699 390.635 89.9274C390.822 97.5849 390.916 105.336 390.916 113.18V124.946C390.916 128.028 390.495 130.269 389.655 131.67C388.814 133.164 386.713 133.911 383.351 133.911C381.764 133.911 380.503 133.725 379.569 133.351C378.729 132.977 378.075 132.277 377.608 131.25C377.235 130.316 377.001 128.962 376.908 127.188C376.815 125.413 376.768 123.172 376.768 120.464V104.635C376.768 101.274 376.768 98.4254 376.768 96.0908C376.861 93.7561 376.908 91.5149 376.908 89.3671C377.001 87.2193 377.048 84.978 377.048 82.6434C377.141 80.3088 377.188 77.4606 377.188 74.0988C377.188 69.7097 377.095 66.2078 376.908 63.5931C376.721 60.8849 376.301 58.8305 375.647 57.4297C375.087 55.9356 374.153 54.955 372.846 54.4881C371.632 54.0212 369.904 53.7877 367.663 53.7877C366.075 53.7877 364.534 54.6282 363.04 56.3091C361.64 57.8966 360.239 60.0912 358.838 62.8927C357.531 65.6942 356.27 68.9627 355.056 72.698C353.935 76.4334 352.815 80.4489 351.694 84.7446C350.574 89.0402 349.546 93.476 348.612 98.0518C347.679 102.534 346.745 106.97 345.811 111.359C345.811 117.803 345.718 122.565 345.531 125.647C345.437 128.635 345.111 130.643 344.55 131.67C343.99 132.791 343.15 133.258 342.029 133.071C340.908 132.884 339.367 132.791 337.406 132.791C334.698 132.791 332.317 132.044 330.263 130.55C328.208 129.149 327.181 126.954 327.181 123.966C327.181 121.258 327.181 119.063 327.181 117.382C327.181 115.608 327.181 114.021 327.181 112.62C327.181 111.126 327.181 109.538 327.181 107.857C327.181 106.083 327.181 103.842 327.181 101.133C327.181 97.5849 327.087 94.083 326.901 90.6278C326.807 87.1726 326.761 83.6707 326.761 80.1221V47.3442C326.761 45.5699 326.807 43.8423 326.901 42.1614C326.994 40.3871 327.321 38.8463 327.881 37.5389C328.442 36.1381 329.329 35.0175 330.543 34.1771C331.85 33.3366 333.671 32.9164 336.006 32.9164Z" fill="white"/>
<path d="M4.48244 119.904C4.48244 115.048 4.48244 109.725 4.48244 103.935C4.48244 98.0518 4.52913 91.9818 4.62252 85.7251C4.80928 79.375 5.08944 72.9782 5.46297 66.5347C5.83651 60.0912 6.35012 53.8811 7.00381 47.9045C7.19058 46.317 7.33066 44.5427 7.42404 42.5816C7.61081 40.5272 7.98434 38.6128 8.54465 36.8385C9.10495 34.9708 9.94541 33.43 11.066 32.216C12.1866 31.002 13.8675 30.395 16.1088 30.395C17.4161 30.395 18.7235 30.395 20.0309 30.395C21.3383 30.3016 22.6457 30.2549 23.953 30.2549H28.0152C37.8206 30.2549 45.5248 31.2822 51.1278 33.3366C56.8243 35.2977 61.1199 38.3793 64.0148 42.5816C67.0031 46.7839 68.8708 52.1068 69.6179 58.5503C70.4583 64.9938 70.8786 72.6513 70.8786 81.5228C70.8786 93.5694 70.0381 103.188 68.3572 110.379C66.6763 117.476 63.7347 122.892 59.5324 126.627C55.3301 130.269 49.6804 132.604 42.5832 133.631C35.486 134.752 26.5211 135.312 15.6885 135.312C13.1672 135.312 11.1594 134.892 9.66526 134.051C8.17111 133.211 7.0505 132.09 6.30343 130.69C5.55636 129.289 5.04274 127.655 4.76259 125.787C4.57582 123.919 4.48244 121.958 4.48244 119.904ZM32.2175 47.0641C32.1241 47.0641 31.844 47.1108 31.3771 47.2041C31.0035 47.2041 30.5833 47.3442 30.1164 47.6244C29.7429 47.8111 29.3693 48.138 28.9958 48.6049C28.6222 49.0718 28.3421 49.6788 28.1553 50.4259C27.0347 56.4959 26.2409 62.7526 25.774 69.1961C25.3071 75.6396 25.027 81.9431 24.9336 88.1064C24.9336 94.2698 24.9803 100.153 25.0736 105.756C25.167 111.359 25.2137 116.355 25.2137 120.744C25.2137 122.332 25.5406 123.452 26.1943 124.106C26.8479 124.666 28.0619 124.946 29.8362 124.946H32.0775C40.6688 124.946 47.159 121.398 51.5481 114.301C56.0305 107.11 58.2717 96.8378 58.2717 83.4839C58.2717 76.1999 58.1316 70.2233 57.8515 65.5541C57.5713 60.7915 56.5908 57.0562 54.9099 54.348C53.3224 51.6399 50.7543 49.7722 47.2057 48.745C43.7505 47.6244 38.7544 47.0641 32.2175 47.0641ZM101.29 85.1648V85.8652C101.29 93.1492 101.431 99.2658 101.711 104.215C101.991 109.165 102.691 113.18 103.812 116.262C104.932 119.25 106.567 121.445 108.714 122.845C110.956 124.153 113.991 124.806 117.819 124.806C121.461 124.806 124.31 124.433 126.364 123.686C128.512 122.939 130.099 121.631 131.127 119.764C132.247 117.803 132.948 115.235 133.228 112.059C133.601 108.884 133.788 104.869 133.788 100.013C133.788 96.5577 134.068 94.1297 134.629 92.7289C135.189 91.2348 136.823 90.4877 139.531 90.4877C142.053 90.4877 143.593 91.0947 144.154 92.3087C144.714 93.5227 144.994 95.4838 144.994 98.1919C144.994 105.476 144.761 111.593 144.294 116.542C143.827 121.398 142.66 125.32 140.792 128.308C138.924 131.297 136.169 133.398 132.527 134.612C128.979 135.919 124.029 136.573 117.679 136.573C108.808 136.573 101.804 135.919 96.6679 134.612C91.5318 133.398 87.6563 131.016 85.0416 127.468C82.5202 123.919 80.886 119.017 80.1389 112.76C79.4852 106.503 79.1584 98.332 79.1584 88.2465C79.1584 77.5073 79.4385 68.4024 79.9988 60.9316C80.6525 53.4609 82.1934 47.3909 84.6214 42.7217C87.0493 37.9591 90.6446 34.5039 95.4072 32.3561C100.263 30.2082 106.847 29.1343 115.158 29.1343C119.921 29.1343 123.889 29.6012 127.064 30.5351C130.333 31.4689 132.948 33.0098 134.909 35.1576C136.87 37.3054 138.224 40.0603 138.971 43.4221C139.811 46.7839 140.232 50.9395 140.232 55.8889C140.232 61.6787 139.765 66.5347 138.831 70.4568C137.99 74.2856 136.45 77.3672 134.208 79.7018C132.061 82.0364 129.119 83.7174 125.384 84.7446C121.742 85.6784 117.072 86.1453 111.376 86.1453C107.827 86.1453 104.465 85.8185 101.29 85.1648ZM116.699 46.0835C113.337 46.0835 110.676 46.4104 108.714 47.0641C106.753 47.7178 105.213 49.0718 104.092 51.1263C103.065 53.0874 102.364 55.9356 101.991 59.6709C101.617 63.3129 101.384 68.1689 101.29 74.2389C102.878 74.7058 104.419 75.0793 105.913 75.3595C107.5 75.6396 109.088 75.7797 110.676 75.7797C114.411 75.7797 117.446 75.4529 119.78 74.7992C122.115 74.1455 123.889 73.0716 125.103 71.5774C126.411 69.9899 127.251 67.9354 127.625 65.4141C128.092 62.7993 128.325 59.5309 128.325 55.6087C128.325 53.6477 128.138 52.0601 127.765 50.8461C127.391 49.5388 126.738 48.5582 125.804 47.9045C124.963 47.1575 123.796 46.6905 122.302 46.5038C120.808 46.2236 118.94 46.0835 116.699 46.0835ZM174.771 136.433C169.635 136.433 165.433 136.106 162.164 135.452C158.989 134.798 156.468 133.631 154.6 131.95C152.733 130.363 151.425 128.168 150.678 125.367C150.025 122.565 149.698 119.017 149.698 114.721C149.698 109.958 149.978 105.943 150.538 102.674C151.192 99.3125 151.939 96.511 152.779 94.2698C153.713 92.0285 154.694 90.2075 155.721 88.8068C156.748 87.406 157.635 86.2854 158.382 85.445C160.157 83.3905 161.324 82.1765 161.884 81.803C162.445 81.3361 163.052 81.1026 163.705 81.1026C165.666 81.1026 167.347 81.6629 168.748 82.7835C170.242 83.9041 170.989 85.3049 170.989 86.9858C170.989 87.3593 170.849 87.7796 170.569 88.2465C170.382 88.62 169.775 89.5072 168.748 90.9079C168.001 91.8418 167.254 92.869 166.507 93.9896C165.853 95.0168 165.246 96.2308 164.686 97.6316C164.126 99.0324 163.659 100.76 163.285 102.814C162.912 104.775 162.725 107.203 162.725 110.098C162.725 112.807 162.912 115.141 163.285 117.102C163.752 119.063 164.546 120.697 165.666 122.005C166.787 123.312 168.375 124.293 170.429 124.946C172.483 125.507 175.098 125.787 178.273 125.787C183.69 125.787 187.612 124.853 190.04 122.985C192.561 121.024 193.822 117.569 193.822 112.62C193.822 107.67 192.748 103.328 190.6 99.5927C188.546 95.8573 185.931 92.3554 182.756 89.0869C179.581 85.8185 176.172 82.6434 172.53 79.5618C168.888 76.4801 165.48 73.1649 162.305 69.6163C159.129 66.0677 156.468 62.1456 154.32 57.8499C152.266 53.4609 151.239 48.3714 151.239 42.5816C151.239 39.033 151.705 35.9981 152.639 33.4767C153.667 30.9553 155.301 28.9009 157.542 27.3133C159.877 25.6324 162.912 24.4184 166.647 23.6713C170.476 22.9243 175.192 22.5507 180.795 22.5507C186.118 22.5507 190.507 22.971 193.962 23.8114C197.51 24.5585 200.359 26.006 202.506 28.1538C204.654 30.3016 206.148 33.2899 206.989 37.1187C207.923 40.9474 208.39 45.8968 208.39 51.9667C208.39 53.8344 208.156 55.0951 207.689 55.7488C207.316 56.3091 206.008 56.5893 203.767 56.5893C200.872 56.5893 199.145 56.2157 198.584 55.4686C198.024 54.6282 197.744 53.3675 197.744 51.6866C197.744 48.6049 197.51 46.2236 197.043 44.5427C196.577 42.7684 195.829 41.461 194.802 40.6206C193.775 39.6867 192.468 39.1264 190.88 38.9396C189.293 38.6595 187.425 38.5194 185.277 38.5194C182.476 38.5194 180.141 38.6595 178.273 38.9396C176.499 39.1264 175.098 39.5 174.071 40.0603C173.044 40.6206 172.343 41.3676 171.97 42.3015C171.596 43.1419 171.41 44.2625 171.41 45.6633C171.41 49.0251 172.297 52.0134 174.071 54.6282C175.845 57.2429 178.04 59.811 180.655 62.3324C183.363 64.7604 186.258 67.3751 189.339 70.1766C192.514 72.8848 195.409 76.0599 198.024 79.7018C200.732 83.3438 202.973 87.6395 204.748 92.5888C206.522 97.5382 207.409 103.421 207.409 110.238C207.409 115.281 206.849 119.483 205.728 122.845C204.608 126.114 202.74 128.775 200.125 130.83C197.51 132.884 194.149 134.332 190.04 135.172C185.931 136.012 180.841 136.433 174.771 136.433ZM216.678 31.0954C216.678 26.3328 217.472 23.0177 219.06 21.15C220.647 19.2823 223.682 18.3484 228.164 18.3484C232.647 18.3484 235.775 19.2356 237.55 21.0099C239.324 22.7842 240.211 25.7725 240.211 29.9748C240.211 34.3638 239.23 37.6323 237.269 39.7801C235.308 41.8346 231.806 42.8618 226.764 42.8618C222.935 42.8618 220.274 42.068 218.779 40.4805C217.379 38.7996 216.678 35.6712 216.678 31.0954ZM227.044 50.1458C229.378 50.1458 231.246 50.3325 232.647 50.7061C234.048 51.0796 235.122 52.0134 235.869 53.5076C236.709 54.9083 237.269 57.1496 237.55 60.2312C237.83 63.2195 238.016 67.3751 238.11 72.698C238.11 75.4062 238.11 78.9548 238.11 83.3438C238.203 87.6395 238.25 92.0285 238.25 96.511C238.25 100.993 238.25 105.196 238.25 109.118C238.343 112.947 238.39 115.795 238.39 117.662C238.483 121.585 238.39 124.713 238.11 127.048C237.923 129.382 237.503 131.156 236.849 132.37C236.196 133.584 235.262 134.378 234.048 134.752C232.927 135.125 231.433 135.312 229.565 135.312C226.857 135.312 224.756 135.032 223.262 134.472C221.768 134.005 220.647 133.258 219.9 132.23C219.246 131.203 218.826 129.943 218.639 128.448C218.453 126.861 218.359 125.04 218.359 122.985C218.266 117.009 218.172 111.593 218.079 106.737C218.079 101.787 218.079 97.118 218.079 92.7289C218.079 88.2465 218.079 83.9041 218.079 79.7018C218.079 75.4995 218.032 71.1572 217.939 66.6747C217.846 62.846 217.799 59.8577 217.799 57.7099C217.892 55.4686 218.172 53.7877 218.639 52.6671C219.2 51.5465 220.133 50.8461 221.441 50.566C222.748 50.2858 224.616 50.1458 227.044 50.1458ZM315.742 49.0251C315.742 50.7994 315.368 52.3403 314.621 53.6477C313.967 54.955 312.66 55.6087 310.699 55.6087C308.831 55.6087 307.29 55.562 306.076 55.4686C304.956 55.2819 304.022 54.9083 303.275 54.348C302.621 53.7877 302.154 53.0407 301.874 52.1068C301.687 51.0796 301.594 49.7255 301.594 48.0446C301.594 45.0563 300.52 42.7217 298.372 41.0408C296.318 39.2665 292.536 38.3793 287.026 38.3793C283.011 38.3793 279.882 39.1731 277.641 40.7606C275.4 42.3482 273.765 44.9629 272.738 48.6049C271.804 52.2469 271.244 57.0095 271.057 62.8927C270.871 68.7759 270.777 76.0132 270.777 84.6045C270.777 91.048 271.384 96.8378 272.598 101.974C273.906 107.017 275.633 111.359 277.781 115.001C280.022 118.55 282.544 121.304 285.345 123.266C288.24 125.133 291.275 126.067 294.45 126.067C296.971 126.067 299.026 125.507 300.613 124.386C302.294 123.266 303.602 121.818 304.536 120.044C305.563 118.269 306.263 116.262 306.637 114.021C307.104 111.686 307.384 109.351 307.477 107.017C307.571 104.682 307.571 102.441 307.477 100.293C307.477 98.0518 307.477 96.1374 307.477 94.5499C307.477 91.655 307.057 89.9274 306.216 89.3671C305.376 88.7134 303.882 88.62 301.734 89.0869C299.866 89.4605 297.719 89.9741 295.291 90.6278C292.956 91.1881 290.808 91.4682 288.847 91.4682C286.699 91.4682 284.925 91.2348 283.524 90.7679C282.217 90.3009 281.563 88.9469 281.563 86.7056C281.563 84.5578 282.263 83.157 283.664 82.5034C285.158 81.8497 286.699 81.4294 288.287 81.2427C292.396 80.7758 296.318 80.1688 300.053 79.4217C303.882 78.6746 307.897 78.0676 312.1 77.6007C313.874 77.4139 315.228 77.6474 316.162 78.3011C317.096 78.8614 317.749 79.7952 318.123 81.1026C318.59 82.41 318.823 84.0909 318.823 86.1453C318.917 88.1998 318.963 90.5344 318.963 93.1491C318.963 98.0985 318.59 103.141 317.843 108.277C317.189 113.414 315.742 118.083 313.5 122.285C311.259 126.487 308.084 129.896 303.975 132.511C299.866 135.219 294.403 136.573 287.586 136.573C281.61 136.573 276.193 135.452 271.337 133.211C266.575 130.97 262.513 127.608 259.151 123.125C255.789 118.55 253.174 112.9 251.307 106.176C249.532 99.4526 248.645 91.6083 248.645 82.6434C248.645 72.1844 249.019 63.2195 249.766 55.7488C250.513 48.2781 252.194 42.1614 254.808 37.3988C257.517 32.6362 261.392 29.1343 266.435 26.8931C271.478 24.6519 278.295 23.5313 286.886 23.5313C290.808 23.5313 294.497 24.0916 297.952 25.2122C301.407 26.2394 304.442 27.8269 307.057 29.9748C309.765 32.1226 311.866 34.7841 313.36 37.9591C314.948 41.1342 315.742 44.8229 315.742 49.0251ZM336.006 32.9164C338.434 32.9164 340.301 33.3833 341.609 34.3171C342.916 35.1576 343.897 36.3249 344.55 37.819C345.204 39.2198 345.578 40.854 345.671 42.7217C345.764 44.496 345.811 46.317 345.811 48.1847V72.698C346.838 68.5891 347.912 64.667 349.033 60.9316C350.153 57.1029 351.227 53.6477 352.254 50.566C353.375 47.4843 354.402 44.8695 355.336 42.7217C356.27 40.4805 357.064 38.9397 357.717 38.0992C358.465 37.072 359.212 36.2315 359.959 35.5778C360.799 34.9241 361.733 34.4105 362.76 34.037C363.787 33.6634 365.048 33.3833 366.542 33.1965C368.13 33.0098 370.044 32.9164 372.285 32.9164C374.807 32.9164 377.188 33.2899 379.429 34.037C381.67 34.7841 383.585 36.1381 385.172 38.0992C386.853 39.9669 388.161 42.6283 389.095 46.0835C390.028 49.4454 390.495 53.7877 390.495 59.1106V66.6747C390.495 74.519 390.542 82.2699 390.635 89.9274C390.822 97.5849 390.916 105.336 390.916 113.18V124.946C390.916 128.028 390.495 130.269 389.655 131.67C388.814 133.164 386.713 133.911 383.351 133.911C381.764 133.911 380.503 133.725 379.569 133.351C378.729 132.977 378.075 132.277 377.608 131.25C377.235 130.316 377.001 128.962 376.908 127.188C376.815 125.413 376.768 123.172 376.768 120.464V104.635C376.768 101.274 376.768 98.4254 376.768 96.0908C376.861 93.7561 376.908 91.5149 376.908 89.3671C377.001 87.2193 377.048 84.978 377.048 82.6434C377.141 80.3088 377.188 77.4606 377.188 74.0988C377.188 69.7097 377.095 66.2078 376.908 63.5931C376.721 60.8849 376.301 58.8305 375.647 57.4297C375.087 55.9356 374.153 54.955 372.846 54.4881C371.632 54.0212 369.904 53.7877 367.663 53.7877C366.075 53.7877 364.534 54.6282 363.04 56.3091C361.64 57.8966 360.239 60.0912 358.838 62.8927C357.531 65.6942 356.27 68.9627 355.056 72.698C353.935 76.4334 352.815 80.4489 351.694 84.7446C350.574 89.0402 349.546 93.476 348.612 98.0518C347.679 102.534 346.745 106.97 345.811 111.359C345.811 117.803 345.718 122.565 345.531 125.647C345.437 128.635 345.111 130.643 344.55 131.67C343.99 132.791 343.15 133.258 342.029 133.071C340.908 132.884 339.367 132.791 337.406 132.791C334.698 132.791 332.317 132.044 330.263 130.55C328.208 129.149 327.181 126.954 327.181 123.966C327.181 121.258 327.181 119.063 327.181 117.382C327.181 115.608 327.181 114.021 327.181 112.62C327.181 111.126 327.181 109.538 327.181 107.857C327.181 106.083 327.181 103.842 327.181 101.133C327.181 97.5849 327.087 94.083 326.901 90.6278C326.807 87.1726 326.761 83.6707 326.761 80.1221V47.3442C326.761 45.5699 326.807 43.8423 326.901 42.1614C326.994 40.3871 327.321 38.8463 327.881 37.5389C328.442 36.1381 329.329 35.0175 330.543 34.1771C331.85 33.3366 333.671 32.9164 336.006 32.9164Z" fill="#A9E93F"/>
<path d="M47.8397 207.846C47.8397 205.988 47.8397 203.253 47.8397 199.641C47.9429 196.028 47.8913 192.313 47.6849 188.494C47.4785 184.571 47.0656 180.959 46.4463 177.656C45.9303 174.25 45.0013 171.825 43.6595 170.38C42.8338 169.451 41.8017 168.883 40.5631 168.677C39.3246 168.367 38.1376 168.212 37.0022 168.212C31.4287 168.212 27.1969 169.038 24.3069 170.689C21.5201 172.237 19.5075 174.198 18.2689 176.572C17.0303 178.946 16.3594 181.527 16.2562 184.313C16.153 186.997 15.9982 189.526 15.7917 191.9C15.5853 194.274 15.0693 196.286 14.2435 197.938C13.521 199.486 11.9212 200.26 9.44409 200.26C6.76052 200.26 5.05749 199.383 4.33499 197.628C3.71571 195.873 3.40606 193.912 3.40606 191.745C3.40606 184.933 3.71571 178.998 4.33499 173.94C5.05749 168.78 6.55409 164.496 8.8248 161.09C11.1987 157.684 14.6048 155.155 19.043 153.504C23.5844 151.853 29.6224 151.027 37.1571 151.027C41.9049 151.027 46.1883 151.285 50.0072 151.801C53.8261 152.214 57.129 153.246 59.9158 154.897C62.7025 156.446 64.9732 158.768 66.7279 161.864C68.5857 164.858 69.9275 168.935 70.7532 174.095C71.5789 179.05 72.0434 184.107 72.1466 189.268C72.2498 194.325 72.3014 199.383 72.3014 204.44C72.3014 205.679 72.2498 208.053 72.1466 211.562C72.0434 214.968 71.8886 218.89 71.6822 223.328C71.5789 227.767 71.4241 232.463 71.2177 237.417C71.0113 242.371 70.8048 247.016 70.5984 251.351C70.392 255.583 70.1856 259.247 69.9791 262.343C69.8759 265.543 69.7211 267.504 69.5147 268.226C69.4114 269.052 68.9986 269.723 68.2761 270.239C67.6568 270.755 66.8827 271.168 65.9538 271.478C65.1281 271.787 64.1991 271.994 63.167 272.097C62.1349 272.2 61.2059 272.252 60.3802 272.252C58.6256 272.252 57.129 271.839 55.8904 271.013C54.6518 270.291 53.5681 269.31 52.6392 268.072C51.8135 266.936 51.1426 265.646 50.6265 264.201C50.1104 262.756 49.6976 261.311 49.3879 259.866C47.3236 262.653 44.7949 264.975 41.8017 266.833C38.9117 268.794 35.8153 269.775 32.5124 269.775C27.1453 269.775 22.6555 269.207 19.043 268.072C15.5337 266.936 12.6953 265.13 10.5278 262.653C8.46355 260.279 6.96695 257.234 6.03802 253.518C5.21231 249.803 4.79945 245.365 4.79945 240.204C4.79945 233.598 5.1607 228.128 5.8832 223.793C6.70891 219.458 8.25712 216.052 10.5278 213.575C12.9018 210.994 16.153 209.24 20.2816 208.311C24.4101 207.279 29.8805 206.762 36.6926 206.762C38.5504 206.762 40.4083 206.866 42.2661 207.072C44.124 207.279 45.9819 207.537 47.8397 207.846ZM47.5301 240.204C47.3236 237.314 47.2204 234.63 47.2204 232.153C47.2204 229.676 47.2204 227.715 47.2204 226.27C47.2204 225.135 47.2204 224.051 47.2204 223.019C47.2204 221.987 47.272 220.903 47.3752 219.767C45.7238 219.251 44.0724 218.89 42.421 218.684C40.8728 218.374 39.2213 218.219 37.4667 218.219C32.7189 218.219 29.0031 218.529 26.3196 219.148C23.7392 219.767 21.8298 220.903 20.5912 222.554C19.3526 224.206 18.5785 226.476 18.2689 229.366C18.0625 232.256 17.9592 235.972 17.9592 240.513C17.9592 242.887 18.1141 245.055 18.4237 247.016C18.7333 248.874 19.301 250.474 20.1267 251.815C21.0557 253.054 22.2942 254.035 23.8424 254.757C25.4939 255.376 27.6614 255.686 30.3449 255.686C32.9253 255.686 35.1444 255.325 37.0022 254.602C38.8601 253.88 40.4083 252.848 41.6469 251.506C42.9886 250.164 44.124 248.564 45.0529 246.706C45.9819 244.848 46.756 242.836 47.3752 240.668C47.3752 240.565 47.3752 240.513 47.3752 240.513C47.4785 240.41 47.5301 240.307 47.5301 240.204ZM108.673 213.729C108.673 223.122 108.828 230.657 109.138 236.333C109.448 241.907 110.015 246.242 110.841 249.338C111.667 252.331 112.75 254.344 114.092 255.376C115.434 256.305 117.085 256.77 119.047 256.77C122.453 256.77 125.136 256.357 127.097 255.531C129.058 254.705 130.555 253.26 131.587 251.196C132.722 249.029 133.445 246.19 133.755 242.681C134.064 239.172 134.219 234.734 134.219 229.366C134.219 225.547 134.529 222.864 135.148 221.316C135.767 219.664 137.573 218.839 140.567 218.839C143.353 218.839 145.056 219.509 145.676 220.851C146.295 222.193 146.605 224.36 146.605 227.354C146.605 235.404 146.347 242.165 145.831 247.635C145.314 253.002 144.024 257.337 141.96 260.64C139.896 263.943 136.851 266.265 132.826 267.607C128.903 269.052 123.433 269.775 116.415 269.775C109.809 269.775 104.442 269.052 100.313 267.607C96.2878 266.265 93.1398 263.633 90.8691 259.711C88.7016 255.789 87.2566 250.37 86.5341 243.455C85.8116 236.54 85.4503 227.509 85.4503 216.361C85.4503 213.265 85.5019 209.343 85.6052 204.595C85.7084 199.847 85.8116 194.841 85.9148 189.577C86.018 184.21 86.1212 178.791 86.2244 173.321C86.3277 167.748 86.3793 162.587 86.3793 157.839C86.3793 155.775 87.205 154.381 88.8564 153.659C90.611 152.833 93.2946 152.42 96.9071 152.42C101.242 152.42 104.39 152.833 106.351 153.659C108.312 154.485 109.293 156.084 109.293 158.458C109.293 161.039 109.293 163.825 109.293 166.819C109.293 169.709 109.241 172.702 109.138 175.798C110.789 175.798 112.389 175.798 113.937 175.798C115.486 175.695 117.085 175.643 118.737 175.643H136.851C139.947 175.643 142.166 176.056 143.508 176.882C144.953 177.605 145.676 179.669 145.676 183.075C145.676 184.52 145.366 185.655 144.747 186.481C144.231 187.203 143.56 187.72 142.734 188.029C141.908 188.339 140.928 188.545 139.793 188.648C138.76 188.648 137.677 188.648 136.541 188.648C131.484 188.648 126.891 188.7 122.762 188.803C118.634 188.906 114.041 188.906 108.983 188.803C108.88 193.345 108.777 197.731 108.673 201.963C108.673 206.195 108.673 210.117 108.673 213.729ZM168.205 268.381C165.418 268.381 163.25 268.175 161.702 267.762C160.154 267.349 159.019 266.472 158.296 265.13C157.574 263.891 157.161 262.137 157.057 259.866C156.954 257.492 156.954 254.396 157.057 250.577C157.574 235.92 158.141 221.367 158.761 206.917C159.483 192.467 160.102 177.914 160.618 163.258C160.825 159.232 161.909 156.6 163.87 155.362C165.831 154.123 169.082 153.504 173.623 153.504C178.268 153.504 181.261 154.485 182.603 156.446C184.048 158.407 184.667 161.864 184.461 166.819C184.254 173.631 183.945 180.495 183.532 187.41C183.222 194.222 182.809 201.034 182.293 207.846C187.248 207.021 192.305 206.298 197.466 205.679C202.73 204.956 207.787 204.285 212.638 203.666C212.845 196.751 213 189.835 213.103 182.92C213.206 176.005 213.258 169.089 213.258 162.174C213.258 160.11 213.361 158.51 213.567 157.375C213.877 156.239 214.29 155.414 214.806 154.897C215.425 154.278 216.199 153.917 217.128 153.814C218.16 153.607 219.347 153.504 220.689 153.504C222.444 153.504 223.785 153.607 224.714 153.814C225.746 154.02 226.469 154.485 226.882 155.207C227.398 155.93 227.708 156.962 227.811 158.304C228.017 159.645 228.12 161.4 228.12 163.567C228.12 178.74 227.914 193.861 227.501 208.93C227.088 223.896 226.882 238.965 226.882 254.138C226.882 257.028 226.882 259.402 226.882 261.26C226.985 263.117 226.779 264.562 226.263 265.595C225.85 266.627 225.024 267.349 223.785 267.762C222.547 268.175 220.689 268.381 218.212 268.381C216.664 268.381 215.425 268.226 214.496 267.917C213.67 267.71 213 267.194 212.483 266.369C212.071 265.543 211.813 264.408 211.709 262.963C211.606 261.518 211.555 259.608 211.555 257.234C211.555 254.86 211.606 252.59 211.709 250.422C211.916 248.151 212.019 245.829 212.019 243.455C212.019 239.12 212.019 234.837 212.019 230.605C212.122 226.27 212.225 221.935 212.329 217.6C209.026 218.013 205.723 218.426 202.42 218.839C199.22 219.148 195.969 219.509 192.666 219.922L181.364 221.471C181.055 226.734 180.745 231.947 180.435 237.107C180.229 242.165 180.023 247.326 179.816 252.59C179.713 255.996 179.507 258.782 179.197 260.95C178.887 263.014 178.32 264.562 177.494 265.595C176.771 266.73 175.636 267.452 174.088 267.762C172.643 268.175 170.682 268.381 168.205 268.381ZM237.938 209.085C238.145 197.215 238.867 187.203 240.106 179.05C241.447 170.792 243.667 164.135 246.763 159.078C249.859 153.917 254.04 150.201 259.303 147.93C264.567 145.557 271.276 144.37 279.43 144.37C287.171 144.37 293.416 145.969 298.164 149.169C302.911 152.265 306.524 156.704 309.001 162.484C311.581 168.16 313.233 175.024 313.955 183.075C314.781 191.126 315.091 200.054 314.884 209.859C314.678 219.664 314.007 228.386 312.872 236.024C311.839 243.558 309.93 249.906 307.143 255.067C304.356 260.227 300.538 264.098 295.686 266.678C290.835 269.362 284.591 270.704 276.953 270.704C268.49 270.704 261.626 269.723 256.362 267.762C251.201 265.801 247.227 262.446 244.441 257.699C241.654 252.951 239.796 246.655 238.867 238.81C238.041 230.863 237.732 220.954 237.938 209.085ZM258.684 209.704C258.581 219.303 258.787 227.302 259.303 233.701C259.923 239.997 261.007 245.055 262.555 248.874C264.206 252.59 266.374 255.221 269.057 256.77C271.741 258.215 275.095 258.937 279.121 258.937C283.146 258.937 286.5 258.111 289.184 256.46C291.868 254.809 293.983 252.125 295.532 248.409C297.183 244.694 298.37 239.843 299.093 233.856C299.918 227.767 300.383 220.335 300.486 211.562C300.692 202.789 300.434 195.254 299.712 188.958C299.093 182.662 297.957 177.501 296.306 173.476C294.654 169.451 292.435 166.509 289.648 164.651C286.862 162.69 283.456 161.71 279.43 161.71C275.405 161.71 272.05 162.432 269.367 163.877C266.787 165.219 264.722 167.696 263.174 171.308C261.626 174.921 260.542 179.824 259.923 186.016C259.303 192.209 258.891 200.105 258.684 209.704ZM331.913 155.207C334.597 155.207 336.661 155.723 338.106 156.755C339.551 157.684 340.635 158.974 341.357 160.626C342.08 162.174 342.493 163.98 342.596 166.045C342.699 168.006 342.751 170.018 342.751 172.083V199.176C343.886 194.635 345.073 190.3 346.312 186.171C347.55 181.94 348.737 178.121 349.873 174.715C351.111 171.308 352.247 168.418 353.279 166.045C354.311 163.567 355.188 161.864 355.911 160.935C356.736 159.8 357.562 158.871 358.388 158.149C359.317 157.426 360.349 156.859 361.484 156.446C362.62 156.033 364.013 155.723 365.664 155.517C367.419 155.31 369.535 155.207 372.012 155.207C374.799 155.207 377.431 155.62 379.908 156.446C382.385 157.271 384.501 158.768 386.256 160.935C388.113 163 389.558 165.941 390.591 169.76C391.623 173.476 392.139 178.275 392.139 184.159V192.519C392.139 201.189 392.19 209.756 392.294 218.219C392.5 226.683 392.603 235.25 392.603 243.92V256.925C392.603 260.331 392.139 262.808 391.21 264.356C390.281 266.007 387.959 266.833 384.243 266.833C382.488 266.833 381.095 266.627 380.063 266.214C379.134 265.801 378.411 265.027 377.895 263.891C377.482 262.859 377.224 261.363 377.121 259.402C377.018 257.441 376.966 254.963 376.966 251.97V234.475C376.966 230.76 376.966 227.612 376.966 225.031C377.07 222.451 377.121 219.974 377.121 217.6C377.224 215.226 377.276 212.749 377.276 210.169C377.379 207.588 377.431 204.44 377.431 200.724C377.431 195.873 377.328 192.003 377.121 189.113C376.915 186.12 376.45 183.849 375.728 182.301C375.108 180.649 374.076 179.566 372.631 179.05C371.29 178.533 369.38 178.275 366.903 178.275C365.148 178.275 363.445 179.204 361.794 181.062C360.246 182.817 358.697 185.242 357.149 188.339C355.704 191.435 354.311 195.048 352.969 199.176C351.73 203.305 350.492 207.743 349.253 212.491C348.015 217.239 346.879 222.141 345.847 227.199C344.815 232.153 343.783 237.056 342.751 241.907C342.751 249.029 342.648 254.293 342.441 257.699C342.338 261.001 341.977 263.221 341.357 264.356C340.738 265.595 339.809 266.111 338.571 265.904C337.332 265.698 335.629 265.595 333.462 265.595C330.468 265.595 327.836 264.769 325.566 263.117C323.295 261.569 322.16 259.144 322.16 255.841C322.16 252.848 322.16 250.422 322.16 248.564C322.16 246.603 322.16 244.848 322.16 243.3C322.16 241.649 322.16 239.894 322.16 238.036C322.16 236.075 322.16 233.598 322.16 230.605C322.16 226.683 322.056 222.812 321.85 218.993C321.747 215.174 321.695 211.304 321.695 207.382V171.154C321.695 169.193 321.747 167.283 321.85 165.425C321.953 163.464 322.314 161.761 322.934 160.316C323.553 158.768 324.534 157.529 325.875 156.6C327.32 155.672 329.333 155.207 331.913 155.207Z" fill="white"/>
<path d="M256.806 164.272L281.611 155.517L303.498 173.026L306.416 216.8L303.498 247.442C299.607 250.846 290.949 258.823 287.447 263.492C283.945 268.161 269.451 265.438 262.642 263.492L246.592 216.8L256.806 164.272Z" fill="white"/>
<path d="M253.417 178.198L268.299 179.452L265.966 207.147C265.964 207.169 265.966 207.19 265.972 207.211L269.883 221.219C269.93 221.388 269.731 221.517 269.595 221.406L260.761 214.135L256.146 210.05L251.71 205.979C251.202 204.492 251.328 203.003 251.328 203.003L253.417 178.198Z" fill="#232323"/>
<path d="M283.46 263.653C284.216 261.102 271.586 224.784 271.586 224.784L260.929 227.133L271.38 246.496C271.38 246.496 282.704 266.204 283.46 263.653Z" fill="#232323"/>
<path d="M232.611 165.1L312.175 171.8C314.437 171.99 316.116 173.978 315.925 176.24L314.839 189.142C314.839 189.142 314.92 188.176 314.743 190.275C314.567 192.374 312.152 194.84 312.152 194.84L301.222 185.107L301.525 181.51L301.514 181.642L231.713 175.764L232.611 165.1Z" fill="#232323"/>
<path d="M278.672 226.283C278.104 225.278 283.969 215.639 284.92 214.186C300.647 190.174 300.647 190.174 300.647 190.174L305.105 203.623C305.105 203.623 279.849 228.366 278.672 226.283Z" fill="#232323"/>
<path d="M232.611 165.1L312.175 171.8C314.437 171.99 316.116 173.978 315.925 176.24L315.914 176.357L231.819 174.49L232.611 165.1Z" fill="#292929"/>
<path d="M284.92 214.186L300.636 190.135L305.105 203.623L302.355 206.277L284.92 214.186Z" fill="#292929"/>
<path d="M283.457 263.652C284.225 261.103 271.586 224.784 271.586 224.784L264.786 226.286L271.38 246.496C271.38 246.496 282.69 266.201 283.457 263.652Z" fill="#292929"/>
<path d="M253.618 178.216L268.073 182.112L265.966 207.147C265.964 207.169 265.966 207.19 265.972 207.211L269.883 221.219C269.93 221.388 269.731 221.517 269.595 221.406L260.761 214.135L253.618 178.216Z" fill="#292929"/>
<path d="M252.531 208.56L270.978 223.967L258.758 226.686L252.531 208.56Z" fill="#171717"/>
<path d="M273.829 254.954L279.232 263.329L268.871 262.456L273.829 254.954Z" fill="#171717"/>
<path d="M255.643 217.623L269.211 222.492L270.978 223.967L258.758 226.686L255.643 217.623Z" fill="#151515"/>
<path d="M273.829 254.954L279.232 263.329L274.23 262.907L271.033 259.18L273.829 254.954Z" fill="#151515"/>
<path d="M300.183 185.326L313.747 197.197L307.726 209.97L300.183 185.326Z" fill="#151515"/>
<path d="M254.928 160.267L269.762 161.516L269.268 167.381L254.434 166.132L254.928 160.267Z" fill="#151515"/>
<path d="M301.127 188.407L313.747 197.197L311.165 202.677L301.127 188.407Z" fill="#171717"/>
</svg>
