<svg width="4001" height="2460" viewBox="0 0 4001 2460" fill="none" xmlns="http://www.w3.org/2000/svg">
<path d="M38.2466 53.3659C125.667 41.2241 194.875 32.1178 245.871 26.0468C298.08 19.9759 351.504 16.9405 406.142 16.9405C504.49 16.9405 588.876 28.4752 659.298 51.5446C730.934 74.614 791.036 114.075 839.603 169.927C927.024 277.989 970.734 378.158 970.734 470.435C970.734 522.645 959.199 576.069 936.13 630.707C913.061 684.131 879.671 730.269 835.961 769.123C792.25 807.977 740.648 830.439 681.153 836.51C703.008 875.363 741.255 934.858 795.893 1014.99C844.46 1085.42 883.92 1146.73 914.275 1198.94C944.629 1251.15 970.734 1307 992.589 1366.5L1003.52 1390.17H978.019C958.592 1390.17 925.81 1391.39 879.671 1393.82C826.247 1396.25 785.572 1397.46 757.646 1397.46C732.148 1397.46 699.973 1396.25 661.119 1393.82C658.691 1390.17 656.262 1384.71 653.834 1377.43C651.406 1371.35 647.763 1366.5 642.906 1362.86C639.264 1359.21 633.193 1357.39 624.694 1357.39C561.557 1208.05 496.598 1081.77 429.818 978.568V1025.92C429.818 1059.92 432.854 1131.55 438.925 1240.83C442.567 1291.83 444.389 1334.32 444.389 1368.32C418.891 1380.46 390.358 1388.35 358.789 1392C328.435 1395.64 292.009 1397.46 249.513 1397.46L169.378 1395.64H63.7443C62.5301 1371.35 61.923 1345.25 61.923 1317.32L60.1017 1151.59V1004.07C60.1017 814.654 57.6734 620.386 52.8167 421.261C49.1741 222.136 44.3174 99.5046 38.2466 53.3659ZM624.694 783.693C686.617 778.836 739.433 758.802 783.144 723.591C826.854 687.166 859.637 642.849 881.492 590.639C903.347 538.429 914.275 486.22 914.275 434.01C914.275 369.659 897.884 307.736 865.101 248.241C833.532 188.746 788.608 140.179 730.327 102.54C673.261 64.9005 609.517 44.8666 539.094 42.4382C499.027 37.5816 454.102 35.1532 404.321 35.1532C349.683 35.1532 298.08 38.1887 249.513 44.2595C202.16 49.1163 139.023 57.0084 60.1017 67.9359C66.1726 103.147 71.0293 211.209 74.6719 392.121C78.3144 573.033 80.1357 766.087 80.1357 971.283V1158.87C80.1357 1217.15 79.5286 1257.83 78.3144 1280.9V1337.36C81.9569 1338.57 86.2065 1339.18 91.0632 1339.18C106.848 1339.18 119.596 1339.79 129.31 1341L202.16 1342.82C247.085 1342.82 284.724 1341.61 315.079 1339.18C345.433 1335.54 370.324 1329.47 389.751 1320.97C380.037 1200.76 375.181 1090.88 375.181 991.317C375.181 945.178 377.002 906.932 380.644 876.577L384.287 882.041C430.426 937.893 475.957 1008.92 520.882 1095.13C565.806 1180.12 604.66 1261.47 637.443 1339.18H639.264C680.546 1341.61 712.115 1342.82 733.97 1342.82C760.682 1342.82 798.321 1341.61 846.888 1339.18C890.598 1336.75 921.56 1335.54 939.773 1335.54C917.917 1277.26 890.598 1220.8 857.816 1166.16C825.033 1110.31 784.965 1047.78 737.612 978.568C725.47 959.141 706.044 930.001 679.332 891.148C653.834 851.08 632.586 815.869 615.588 785.514L624.694 783.693ZM455.316 293.773C496.598 293.773 530.595 306.522 557.307 332.019C584.019 356.303 597.375 389.693 597.375 432.189C597.375 475.899 584.626 506.861 559.128 525.073C534.845 543.286 494.777 552.392 438.925 552.392C401.285 552.392 367.288 550.571 336.934 546.929H335.113C331.47 526.288 329.649 483.791 329.649 419.44L326.006 322.913C369.717 303.486 412.82 293.773 455.316 293.773ZM491.741 348.411C457.745 348.411 420.712 356.303 380.644 372.087C383.073 403.656 384.287 431.582 384.287 455.865L382.466 508.682L384.287 534.18H438.925C466.851 534.18 493.563 532.358 519.06 528.716H517.239C537.88 523.859 553.664 512.932 564.592 495.933C575.52 477.721 580.983 456.472 580.983 432.189C580.983 376.337 551.236 348.411 491.741 348.411ZM1796.82 1392C1748.25 1400.49 1709.4 1404.74 1680.26 1404.74C1624.41 1404.74 1569.77 1398.67 1516.35 1386.53C1511.49 1371.96 1507.24 1362.86 1503.6 1359.21C1499.95 1355.57 1495.7 1353.14 1490.85 1351.93C1485.99 1351.93 1482.35 1351.32 1479.92 1350.11C1470.21 1319.75 1456.85 1270.58 1439.85 1202.58C1430.14 1162.52 1421.64 1133.38 1414.35 1115.16C1408.28 1096.95 1401.61 1087.84 1394.32 1087.84C1384.61 1087.84 1376.11 1088.45 1368.82 1089.67C1362.75 1089.67 1354.25 1089.67 1343.32 1089.67C1334.83 1112.73 1326.33 1149.77 1317.83 1200.76C1308.11 1248.12 1299.61 1285.75 1292.33 1313.68C1285.04 1341.61 1274.72 1368.32 1261.37 1393.82C1257.73 1393.82 1252.26 1394.42 1244.98 1395.64C1238.91 1396.85 1231.01 1397.46 1221.3 1397.46C1207.94 1396.25 1180.02 1395.64 1137.52 1395.64L1059.21 1393.82L962.681 1392L968.144 1355.57H926.255L951.753 1220.8C985.75 1024.1 1022.78 830.439 1062.85 639.813C1102.92 447.973 1153.31 251.277 1214.02 49.7233C1235.87 47.2949 1248.62 46.0808 1252.26 46.0808C1257.12 46.0808 1272.9 46.6879 1299.61 47.902C1326.33 49.1162 1382.18 45.4737 1467.17 36.9745C1472.03 57.6154 1475.06 70.9714 1476.28 77.0423L1503.6 73.3997C1514.52 135.323 1552.77 302.879 1618.34 576.069C1642.62 675.631 1655.37 728.448 1656.58 734.519L1796.82 1392ZM1452.6 57.0083C1399.18 61.8651 1346.36 64.2934 1294.15 64.2934H1255.9C1241.33 64.2934 1232.23 64.9005 1228.59 66.1147C1170.3 261.597 1121.74 451.616 1082.88 636.171C1045.24 820.725 1007.61 1017.42 969.966 1226.26C966.323 1249.33 962.681 1271.18 959.038 1291.83C955.396 1311.25 952.36 1326.43 949.932 1337.36L953.574 1339.18H997.285L1141.16 1341C1153.31 1342.21 1167.88 1342.82 1184.87 1342.82C1198.23 1342.82 1206.12 1342.21 1208.55 1341L1214.02 1339.18C1224.94 1320.97 1233.44 1299.11 1239.51 1273.61C1245.58 1248.12 1252.26 1214.12 1259.55 1171.62C1271.69 1103.63 1283.22 1058.1 1294.15 1035.03C1307.51 1035.03 1318.43 1035.03 1326.93 1035.03C1335.43 1033.81 1342.11 1033.21 1346.97 1033.21H1370.64L1407.07 1036.85C1416.78 1058.7 1426.5 1089.06 1436.21 1127.91C1447.14 1166.77 1453.82 1191.05 1456.24 1200.76C1468.39 1257.83 1480.53 1302.15 1492.67 1333.71H1494.49C1541.84 1344.64 1591.62 1350.11 1643.83 1350.11C1674.19 1350.11 1705.76 1347.07 1738.54 1341V1339.18L1601.94 701.736L1452.6 57.0083ZM1281.4 820.118C1295.97 712.057 1302.65 662.882 1301.44 672.596C1311.15 591.246 1319.04 532.358 1325.11 495.933C1332.4 458.294 1339.68 439.474 1346.97 439.474C1355.47 439.474 1364.57 468.007 1374.29 525.073C1385.21 582.14 1399.18 680.488 1416.18 820.118L1325.11 821.94L1281.4 820.118ZM1370.64 594.281L1341.5 801.906H1394.32L1370.64 594.281ZM2098.79 836.51C2098.79 898.433 2102.44 947.607 2109.72 984.032C2117.01 1020.46 2132.79 1041.1 2157.07 1045.96H2155.25L2171.64 1047.78C2202 1047.78 2224.46 1041.71 2239.03 1029.56C2253.6 1017.42 2262.71 1001.64 2266.35 982.211C2271.21 962.784 2275.46 935.465 2279.1 900.254C2281.53 863.829 2285.78 830.439 2291.85 800.084C2317.35 803.727 2342.24 805.548 2366.52 805.548L2452.12 803.727C2498.26 803.727 2535.29 807.369 2563.22 814.655C2565.64 820.725 2566.86 826.189 2566.86 831.046C2568.07 834.688 2569.89 839.545 2572.32 845.616L2599.64 851.08C2616.64 898.433 2625.14 947 2625.14 996.781C2625.14 1081.77 2605.11 1156.45 2565.04 1220.8C2526.18 1285.15 2471.55 1334.32 2401.12 1368.32C2330.7 1403.53 2250.57 1421.14 2160.72 1421.14C2097.58 1421.14 2036.87 1408.99 1978.59 1384.71C1920.31 1360.43 1871.14 1325.82 1831.07 1280.9C1792.21 1234.76 1769.75 1181.34 1763.68 1120.63C1757.61 999.209 1754.58 868.685 1754.58 729.055L1756.4 450.402C1757.61 432.189 1758.22 403.656 1758.22 364.802L1756.4 344.768C1756.4 303.486 1764.29 266.454 1780.07 233.671V235.492C1808 157.785 1849.28 99.5046 1903.92 60.6509C1959.77 20.5831 2035.05 0.549108 2129.76 0.549108C2213.53 0.549108 2294.28 23.0114 2371.98 67.9359C2449.69 112.86 2512.22 172.355 2559.57 246.42C2606.93 319.271 2630.6 395.764 2630.6 475.899C2630.6 523.252 2620.89 573.64 2601.46 627.064C2566.25 635.563 2528.01 639.813 2486.72 639.813C2433.3 639.813 2373.2 633.135 2306.42 619.779L2302.78 590.639C2285.78 588.211 2275.46 583.961 2271.81 577.89C2268.17 571.819 2265.74 560.285 2264.53 543.286C2264.53 525.073 2263.92 511.717 2262.71 503.218C2261.49 493.505 2260.28 477.113 2259.07 454.044C2259.07 429.761 2254.21 411.548 2244.5 399.406C2234.78 386.05 2218.39 379.372 2195.32 379.372C2181.97 379.372 2166.79 381.801 2149.79 386.657C2134.01 391.514 2123.08 396.978 2117.01 403.049C2114.58 405.477 2110.94 436.439 2106.08 495.933C2101.22 554.214 2098.79 636.778 2098.79 743.625V836.51ZM2166.18 324.734C2198.96 324.734 2223.25 333.234 2239.03 350.232C2254.82 366.016 2265.14 385.443 2269.99 408.512C2274.85 431.582 2278.49 462.543 2280.92 501.397C2280.92 508.682 2281.53 519.003 2282.74 532.358C2283.96 545.714 2285.17 557.249 2286.38 566.963C2339.81 579.104 2394.45 585.175 2450.3 585.175C2484.3 585.175 2518.29 581.533 2552.29 574.248C2568.07 531.751 2575.97 486.827 2575.97 439.474C2575.97 362.981 2555.32 292.559 2514.04 228.207C2472.76 163.856 2417.52 112.86 2348.31 75.221C2280.31 37.5816 2207.46 18.7618 2129.76 18.7618C2047.19 18.7618 1977.98 36.3674 1922.13 71.5785C1866.28 105.575 1824.39 162.035 1796.46 240.956C1781.89 276.167 1774.61 309.557 1774.61 341.126C1774.61 352.053 1775.22 359.338 1776.43 362.981C1776.43 400.62 1775.82 428.546 1774.61 446.759L1772.79 729.055C1772.79 867.471 1775.82 997.388 1781.89 1118.81C1789.18 1201.37 1826.21 1263.29 1892.99 1304.57C1959.77 1345.86 2036.87 1366.5 2124.29 1366.5C2209.28 1366.5 2285.78 1350.11 2353.77 1317.32C2421.77 1283.33 2474.58 1235.97 2512.22 1175.26C2551.07 1113.34 2570.5 1041.71 2570.5 960.356C2570.5 914.217 2563.82 871.114 2550.47 831.046C2527.4 824.975 2495.83 821.94 2455.76 821.94L2359.23 823.761C2345.88 823.761 2328.27 822.547 2306.42 820.118C2301.56 837.117 2297.92 864.436 2295.49 902.075C2293.06 937.286 2288.81 966.427 2282.74 989.496C2277.89 1011.35 2266.35 1029.56 2248.14 1044.13C2231.14 1058.7 2205.03 1065.99 2169.82 1065.99C2117.61 1065.99 2083.01 1039.28 2066.01 985.853C2050.23 931.215 2042.33 860.186 2042.33 772.765V707.2C2042.33 593.067 2045.37 506.861 2051.44 448.58C2057.51 390.3 2062.98 358.731 2067.83 353.874C2077.55 344.161 2092.12 336.876 2111.54 332.019C2130.97 327.163 2149.18 324.734 2166.18 324.734ZM3510.79 1382.89C3471.93 1392.6 3430.04 1397.46 3385.12 1397.46L3304.98 1395.64C3268.56 1393.21 3241.24 1392 3223.03 1392C3215.74 1384.71 3206.03 1372.57 3193.89 1355.57H3186.6C3124.68 1290 3061.54 1174.66 2997.19 1009.53C2997.19 1054.45 2998.4 1120.63 3000.83 1208.05C3003.26 1290.61 3004.47 1348.89 3004.47 1382.89C2968.05 1393.82 2920.09 1399.28 2860.59 1399.28C2804.74 1399.28 2751.93 1393.82 2702.14 1382.89C2699.72 1367.1 2696.68 1357.39 2693.04 1353.75C2690.61 1351.32 2686.36 1349.5 2680.29 1348.29C2675.43 1348.29 2670.58 1347.68 2665.72 1346.46C2660.86 1240.83 2658.43 1117.59 2658.43 976.747C2658.43 827.403 2660.26 676.238 2663.9 523.252C2665.11 473.471 2666.33 400.62 2667.54 304.7C2668.76 207.566 2669.36 122.574 2669.36 49.7233H2713.07L2836.92 51.5446C2862.42 52.7588 2900.06 53.3659 2949.84 53.3659V89.7911H2986.26C2987.48 137.144 2988.08 216.066 2988.08 326.556V401.227C3001.44 378.158 3019.05 344.768 3040.9 301.058C3046.97 291.344 3063.36 260.99 3090.07 209.995C3118 158.999 3151.39 106.183 3190.24 51.5446L3224.85 53.3659L3345.05 51.5446C3387.55 51.5446 3429.44 54.5801 3470.72 60.6509L3459.79 91.6124L3507.14 97.0762C3487.72 160.213 3462.83 221.529 3432.47 281.024C3403.33 339.304 3365.09 409.12 3317.73 490.469C3259.45 588.818 3218.17 665.918 3193.89 721.77L3510.79 1382.89ZM3137.43 687.166C3159.28 636.171 3185.99 583.354 3217.56 528.716C3249.13 472.864 3267.95 440.081 3274.02 430.368C3320.16 351.446 3356.59 285.881 3383.3 233.671C3410.01 180.247 3431.26 127.431 3447.04 75.221C3417.9 71.5785 3388.15 69.7573 3357.8 69.7573L3246.7 71.5785C3224.85 71.5785 3209.06 70.9714 3199.35 69.7573C3169 114.682 3129.54 182.069 3080.97 271.918C3051.83 326.556 3027.54 370.266 3008.12 403.049C2989.9 434.617 2968.66 466.186 2944.37 497.754L2937.09 506.861L2935.27 508.682C2934.05 479.542 2933.45 434.617 2933.45 373.908V206.352C2933.45 145.643 2932.84 100.719 2931.62 71.5785C2886.7 71.5785 2852.7 70.9714 2829.63 69.7573L2722.18 67.9359C2707.61 67.9359 2697.9 69.1501 2693.04 71.5785C2688.18 74.0068 2685.75 78.8635 2685.75 86.1486C2685.75 235.492 2683.93 384.229 2680.29 532.358C2677.86 729.055 2676.65 876.578 2676.65 974.926C2676.65 1107.27 2679.08 1226.26 2683.93 1331.89C2724 1340.39 2770.75 1344.64 2824.17 1344.64C2878.81 1344.64 2920.7 1340.39 2949.84 1331.89C2949.84 1296.68 2948.62 1237.79 2946.19 1155.23C2943.77 1062.95 2942.55 994.96 2942.55 951.249C2942.55 911.182 2943.16 881.434 2944.37 862.007C2965.01 899.647 2992.33 956.713 3026.33 1033.21C3059.11 1104.84 3088.25 1164.94 3113.75 1213.51C3139.25 1262.08 3166.57 1303.36 3195.71 1337.36L3237.6 1339.18C3283.74 1341.61 3319.55 1342.82 3345.05 1342.82C3385.12 1342.82 3419.72 1339.79 3448.86 1333.71L3137.43 687.166Z" fill="white"/>
<path d="M3965.39 1153.68C3959.51 1182.09 3951.19 1207.31 3940.41 1229.34L3987.42 1296.93L3991.83 1305.74C3992.81 1308.19 3993.79 1310.88 3994.77 1313.82C3996.24 1316.27 3996.97 1318.72 3996.97 1321.17C3996.97 1325.57 3996.73 1329.49 3996.24 1332.92C3995.75 1335.86 3995.5 1338.8 3995.5 1341.73L3959.51 1342.47L3911.76 1340.27C3910.29 1340.27 3908.34 1340.51 3905.89 1341C3903.44 1341.98 3900.25 1342.47 3896.34 1342.47C3892.91 1342.47 3889.24 1341.73 3885.32 1340.27C3881.89 1338.8 3878.22 1335.37 3874.3 1329.98L3851.53 1313.82L3826.55 1329.98C3816.76 1332.92 3806.23 1335.12 3794.97 1336.59C3784.19 1338.06 3773.17 1339.29 3761.91 1340.27C3750.65 1340.76 3739.63 1341 3728.85 1341C3718.08 1341 3708.53 1341 3700.2 1341C3693.84 1341 3688.94 1340.02 3685.51 1338.06C3664.95 1330.23 3647.07 1319.94 3631.89 1307.21C3617.2 1293.99 3606.91 1278.81 3601.04 1261.67C3598.59 1254.32 3596.63 1247.71 3595.16 1241.83C3594.18 1235.96 3593.2 1230.32 3592.22 1224.94C3591.24 1219.06 3590.26 1213.18 3589.28 1207.31C3588.3 1201.43 3587.08 1194.82 3585.61 1187.47V1148.54C3588.06 1136.79 3592.47 1122.83 3598.83 1106.67C3605.69 1090.51 3617.69 1076.31 3634.83 1064.06C3638.75 1060.15 3644.13 1055.49 3650.99 1050.11C3658.33 1044.72 3664.95 1041.29 3670.82 1039.82C3661.52 1028.07 3652.95 1017.54 3645.11 1008.24C3637.77 998.442 3631.4 988.648 3626.01 978.854C3620.63 969.059 3616.46 958.775 3613.52 948.001C3610.59 936.738 3609.12 923.516 3609.12 908.334C3609.12 898.05 3610.59 888.256 3613.52 878.951C3616.95 869.647 3620.87 861.077 3625.28 853.241C3630.18 845.406 3635.56 838.55 3641.44 832.673C3647.32 826.307 3653.19 821.165 3659.07 817.247C3664.46 814.798 3673.76 810.88 3686.98 805.494C3700.2 800.107 3717.83 797.413 3739.87 797.413C3748.2 797.413 3757.26 798.148 3767.05 799.617C3777.34 800.596 3788.11 802.8 3799.37 806.228L3833.9 820.92L3866.22 850.303C3874.05 862.546 3877.97 879.196 3877.97 900.254C3877.97 921.312 3872.83 944.329 3862.55 969.304C3852.75 994.28 3835.61 1017.05 3811.13 1037.62L3845.65 1091.98C3845.65 1091.49 3846.14 1088.55 3847.12 1083.16C3848.1 1077.78 3849.57 1072.14 3851.53 1066.27C3853.49 1059.9 3855.69 1054.27 3858.14 1049.37C3861.08 1043.99 3864.51 1041.29 3868.42 1041.29C3890.46 1041.29 3909.56 1042.76 3925.72 1045.7C3942.37 1048.64 3952.9 1050.11 3957.31 1050.11C3963.67 1050.11 3969.06 1049.37 3973.47 1047.9C3973.96 1051.82 3974.2 1055.98 3974.2 1060.39C3974.69 1064.8 3974.94 1069.21 3974.94 1073.61C3974.94 1098.59 3971.75 1125.28 3965.39 1153.68ZM3978.61 1302.8L3980.08 1303.54L3927.19 1230.81C3938.94 1204.37 3948 1175.72 3954.37 1144.87C3960.73 1114.02 3963.92 1085.37 3963.92 1058.92C3962.45 1058.92 3960.98 1059.17 3959.51 1059.66C3958.53 1059.66 3957.55 1059.66 3956.57 1059.66C3951.68 1059.66 3948.49 1059.41 3947.02 1058.92L3933.8 1057.45C3928.9 1056.47 3922.54 1055.49 3914.7 1054.52C3907.36 1053.05 3898.05 1051.82 3886.79 1050.84L3878.71 1053.05C3878.22 1053.54 3876.26 1053.78 3872.83 1053.78C3869.89 1053.78 3868.18 1053.05 3867.69 1051.58V1065.53C3867.2 1066.51 3866.46 1067.74 3865.48 1069.21C3865 1070.19 3864.26 1072.63 3863.28 1076.55C3862.3 1079.98 3860.83 1085.61 3858.87 1093.45C3856.91 1101.28 3854.47 1112.3 3851.53 1126.5L3798.64 1036.15C3809.9 1024.89 3818.72 1015.58 3825.08 1008.24C3831.45 1000.4 3836.35 993.79 3839.77 988.403C3843.2 983.016 3845.41 978.364 3846.39 974.446C3847.85 970.039 3849.08 965.386 3850.06 960.489C3851.53 955.592 3853.24 950.205 3855.2 944.329C3857.16 937.962 3860.34 930.127 3864.75 920.822C3867.2 915.925 3868.91 911.517 3869.89 907.6C3871.36 903.682 3872.1 899.764 3872.1 895.847C3872.1 888.99 3871.12 882.379 3869.16 876.013C3867.2 869.647 3863.53 863.035 3858.14 856.179L3830.23 831.204C3814.55 823.858 3801.09 818.226 3789.82 814.308C3779.05 809.901 3768.03 807.697 3756.77 807.697C3739.63 807.697 3722.73 809.656 3706.08 813.574C3689.43 817.492 3677.68 820.92 3670.82 823.858L3664.21 827.531L3664.95 826.796C3660.54 829.245 3656.86 831.449 3653.93 833.407C3650.99 835.366 3648.54 837.57 3646.58 840.019C3644.62 842.467 3642.66 845.406 3640.7 848.834C3639.24 851.772 3637.28 855.69 3634.83 860.587L3628.95 870.136C3624.05 877.972 3621.36 885.318 3620.87 892.174C3620.38 899.03 3620.14 906.375 3620.14 914.211C3620.14 927.433 3621.61 939.187 3624.54 949.471C3627.97 959.755 3632.62 969.794 3638.5 979.588C3644.87 988.893 3652.21 998.687 3660.54 1008.97C3668.86 1019.26 3678.17 1031.01 3688.45 1044.23C3685.51 1045.21 3682.82 1046.43 3680.37 1047.9C3677.92 1048.88 3675.47 1050.11 3673.03 1051.58C3670.58 1053.05 3667.39 1054.76 3663.48 1056.72C3660.05 1058.68 3655.4 1061.13 3649.52 1064.06C3645.6 1069.94 3641.19 1075.08 3636.3 1079.49C3631.89 1083.9 3627.24 1089.04 3622.34 1094.92C3617.93 1100.79 3613.52 1108.14 3609.12 1116.95C3604.71 1125.28 3600.79 1136.3 3597.36 1150.01V1186.74L3601.77 1209.51C3602.75 1217.84 3604.71 1228.85 3607.65 1242.57C3610.59 1256.28 3616.46 1269.75 3625.28 1282.97C3634.58 1296.19 3647.81 1307.7 3664.95 1317.49C3682.58 1326.8 3706.33 1331.45 3736.2 1331.45C3739.14 1331.45 3743.54 1331.21 3749.42 1330.72C3755.3 1329.74 3761.17 1329 3767.05 1328.51C3772.93 1327.53 3778.07 1326.8 3782.48 1326.31C3786.89 1325.33 3789.09 1324.59 3789.09 1324.1C3789.58 1325.08 3791.05 1325.82 3793.5 1326.31C3796.43 1326.8 3798.64 1327.04 3800.11 1327.04C3802.56 1327.04 3804.76 1326.55 3806.72 1325.57C3809.17 1324.1 3812.35 1322.39 3816.27 1320.43L3839.77 1303.54L3850.79 1299.86L3891.19 1327.78L3911.76 1330.72H3986.69V1321.17C3986.69 1318.23 3985.47 1315.29 3983.02 1312.35C3981.06 1309.41 3979.59 1306.23 3978.61 1302.8ZM3783.21 1147.81C3783.21 1146.83 3783.7 1146.34 3784.68 1146.34C3786.64 1146.34 3788.84 1148.79 3791.29 1153.68C3794.23 1158.09 3796.68 1163.48 3798.64 1169.84C3801.09 1176.21 3803.05 1182.82 3804.51 1189.68C3805.98 1196.04 3806.72 1201.19 3806.72 1205.1V1207.31L3799.37 1221.26V1219.79C3798.39 1222.24 3796.19 1224.45 3792.76 1226.41C3789.33 1227.88 3785.66 1229.34 3781.74 1230.81C3776.85 1232.77 3771.7 1234.24 3766.32 1235.22C3764.85 1235.22 3762.89 1234.98 3760.44 1234.49C3758.48 1233.51 3755.54 1232.53 3751.63 1231.55L3752.36 1232.28C3742.08 1232.28 3733.51 1230.81 3726.65 1227.88C3719.79 1224.94 3714.16 1221.26 3709.75 1216.86C3705.84 1212.45 3703.14 1207.8 3701.67 1202.9C3700.2 1198 3699.47 1193.35 3699.47 1188.94C3699.47 1177.68 3701.92 1166.91 3706.82 1156.62C3711.71 1146.34 3715.39 1139.24 3717.83 1135.32L3720.04 1131.65C3721.02 1129.2 3722 1127.97 3722.98 1127.97C3723.96 1127.97 3727.63 1127.24 3734 1125.77L3751.63 1122.1C3756.03 1124.06 3759.46 1125.77 3761.91 1127.24C3764.85 1128.22 3767.3 1129.69 3769.26 1131.65C3771.7 1133.6 3773.91 1135.81 3775.87 1138.26C3777.83 1140.71 3780.27 1143.89 3783.21 1147.81ZM3782.48 1156.62C3781.01 1156.62 3779.29 1155.15 3777.34 1152.21C3774.89 1148.79 3772.93 1146.09 3771.46 1144.13C3770.48 1142.17 3769.26 1140.46 3767.79 1138.99C3766.32 1137.52 3764.36 1136.3 3761.91 1135.32C3759.95 1133.85 3756.77 1132.38 3752.36 1130.91C3744.03 1132.38 3738.16 1133.6 3734.73 1134.58C3731.3 1135.56 3728.85 1136.54 3727.38 1137.52C3726.4 1138.01 3725.92 1138.75 3725.92 1139.73C3725.92 1140.22 3725.18 1141.2 3723.71 1142.66C3719.79 1150.99 3716.37 1159.31 3713.43 1167.64C3710.49 1175.97 3709.02 1183.56 3709.02 1190.41C3709.02 1198.25 3711.47 1204.86 3716.37 1210.25C3721.26 1215.63 3730.08 1219.31 3742.81 1221.26C3747.71 1222.73 3751.38 1224.2 3753.83 1225.67C3756.28 1227.14 3758.73 1227.88 3761.17 1227.88C3763.62 1227.88 3767.05 1226.41 3771.46 1223.47C3771.95 1223.47 3773.17 1223.22 3775.13 1222.73C3777.58 1222.24 3780.03 1221.75 3782.48 1221.26C3784.93 1220.77 3787.13 1220.28 3789.09 1219.79C3791.05 1218.82 3792.03 1217.84 3792.03 1216.86L3800.11 1199.96C3800.11 1197.02 3799.13 1193.11 3797.17 1188.21C3795.7 1183.31 3793.99 1178.41 3792.03 1173.52L3784.68 1155.15L3782.48 1156.62ZM3725.92 959.02C3722.49 950.205 3720.04 941.88 3718.57 934.044C3717.1 929.147 3716.37 924.74 3716.37 920.822C3716.37 919.843 3716.37 918.618 3716.37 917.149C3716.86 915.68 3717.1 914.211 3717.1 912.742V906.131C3717.1 902.213 3718.08 898.295 3720.04 894.377C3722 890.46 3723.47 888.011 3724.45 887.032L3729.59 878.951V880.42C3731.06 877.482 3733.75 875.768 3737.67 875.278C3742.08 874.789 3744.77 874.544 3745.75 874.544C3747.71 874.544 3750.16 875.768 3753.09 878.217C3756.52 880.665 3758.24 882.379 3758.24 883.359H3757.5C3760.44 886.297 3762.15 890.215 3762.64 895.112C3763.62 899.519 3764.11 904.172 3764.11 909.069C3764.11 917.394 3763.87 926.944 3763.38 937.717C3762.89 948.001 3759.71 956.572 3753.83 963.428L3753.09 967.1C3752.12 968.08 3750.65 969.304 3748.69 970.773C3747.22 971.753 3744.52 972.242 3740.61 972.242C3734.24 972.242 3729.34 967.835 3725.92 959.02ZM3720.04 925.23C3720.53 927.188 3721.02 929.392 3721.51 931.841C3722.49 938.697 3724.45 946.287 3727.38 954.613C3730.81 962.448 3735.22 966.366 3740.61 966.366C3744.52 966.366 3747.95 964.897 3750.89 961.958C3753.83 958.53 3756.03 954.613 3757.5 950.205C3759.46 945.308 3760.69 939.921 3761.17 934.044C3762.15 928.168 3762.64 922.291 3762.64 916.415C3762.64 902.213 3760.44 892.663 3756.03 887.766C3751.63 882.869 3747.46 880.42 3743.54 880.42H3739.14C3736.2 880.42 3733.51 881.645 3731.06 884.093L3725.92 891.439C3723.47 891.439 3721.75 895.357 3720.77 903.192C3720.28 910.538 3720.04 916.415 3720.04 920.822C3720.04 921.802 3720.04 923.271 3720.04 925.23Z" fill="white"/>
<path d="M1156.89 1712.48C1144.64 1715.11 1135.02 1719.92 1128.02 1726.92C1126.27 1728.67 1124.52 1731.73 1122.77 1736.11C1121.89 1739.6 1121.02 1742.23 1120.14 1743.98C1118.39 1746.6 1116.64 1761.91 1114.89 1789.91C1114.02 1817.91 1113.14 1851.15 1112.27 1889.65C1111.39 1928.15 1110.96 1968.39 1110.96 2010.39C1110.96 2051.51 1112.27 2087.38 1114.89 2118C1117.52 2143.37 1124.08 2168.3 1134.58 2192.8C1145.95 2216.42 1164.33 2231.73 1189.7 2238.73C1208.95 2240.48 1226.88 2237.86 1243.5 2230.86C1261 2222.99 1274.13 2210.3 1282.87 2192.8C1292.5 2172.68 1296.44 2151.68 1294.69 2129.81C1293.81 2107.06 1295.56 2084.75 1299.93 2062.88C1312.18 2064.63 1325.74 2065.07 1340.62 2064.19C1356.37 2063.32 1372.11 2062.88 1387.86 2062.88C1403.61 2062.88 1418.92 2063.32 1433.79 2064.19C1449.54 2065.07 1463.54 2067.25 1475.79 2070.75C1490.66 2116.25 1494.6 2161.74 1487.6 2207.24C1480.6 2251.86 1465.29 2292.1 1441.67 2327.97C1418.05 2363.84 1386.99 2393.59 1348.49 2417.21C1310.87 2439.96 1268 2451.77 1219.88 2452.65C1188.39 2457.02 1156.01 2457.02 1122.77 2452.65C1089.52 2449.15 1058.46 2440.84 1029.59 2427.71C1000.72 2413.71 976.223 2394.47 956.1 2369.97C936.852 2345.47 925.478 2314.85 921.979 2278.1C920.229 2246.61 918.917 2213.8 918.042 2179.68C917.167 2145.56 916.292 2107.5 915.417 2065.5C915.417 2022.63 915.417 1974.51 915.417 1921.15C916.292 1866.9 917.167 1804.35 918.042 1733.48C916.292 1718.61 916.729 1703.73 919.354 1688.86C922.854 1673.11 927.228 1658.68 932.478 1645.55C940.352 1622.81 949.976 1601.81 961.349 1582.56C973.598 1563.31 988.034 1546.25 1004.66 1531.38C1014.28 1524.38 1024.78 1518.69 1036.15 1514.32C1047.53 1509.07 1059.34 1504.69 1071.59 1501.19C1111.83 1488.07 1151.64 1482.82 1191.01 1485.45C1230.38 1488.07 1267.13 1497.26 1301.25 1513.01C1336.24 1527.88 1367.74 1548 1395.74 1573.37C1423.73 1598.75 1446.04 1628.06 1462.67 1661.3C1479.29 1693.67 1489.35 1729.11 1492.85 1767.6C1496.35 1806.1 1491.1 1845.47 1477.1 1885.71C1444.73 1892.71 1412.8 1895.34 1381.3 1893.59C1350.68 1890.96 1318.75 1886.59 1285.5 1880.46C1282.87 1863.84 1281.12 1845.03 1280.25 1824.03C1280.25 1803.03 1278.06 1783.79 1273.69 1766.29C1269.31 1747.92 1261 1733.04 1248.75 1721.67C1237.38 1710.3 1219.01 1705.05 1193.63 1705.92C1182.26 1707.67 1170.01 1709.86 1156.89 1712.48ZM2144.14 2330.6C2163.39 2363.84 2179.58 2398.4 2192.7 2434.27H2194.01C2163.39 2434.27 2129.27 2435.59 2091.65 2438.21C2054.03 2439.96 2015.53 2439.52 1976.16 2436.9H1974.85C1966.1 2416.78 1955.17 2392.72 1942.04 2364.72C1928.92 2336.72 1914.48 2307.41 1898.73 2276.79C1882.99 2246.17 1865.93 2215.99 1847.55 2186.24C1829.18 2156.49 1810.81 2130.25 1792.43 2107.5L1789.81 2103.56C1787.18 2123.69 1785.87 2148.62 1785.87 2178.37C1785.87 2207.24 1786.31 2237.42 1787.18 2268.92C1788.93 2299.54 1790.68 2328.85 1792.43 2356.85C1794.18 2384.84 1795.5 2407.15 1796.37 2423.78C1781.5 2429.9 1761.81 2433.84 1737.32 2435.59C1713.69 2437.34 1690.07 2438.21 1666.45 2438.21C1642.83 2439.09 1621.39 2439.09 1602.14 2438.21C1583.77 2437.34 1572.4 2437.34 1568.02 2438.21C1569.77 2438.21 1571.08 2426.4 1571.96 2402.78C1572.83 2378.28 1573.27 2346.35 1573.27 2306.98C1573.27 2267.61 1573.27 2222.55 1573.27 2171.8C1573.27 2120.19 1572.83 2067.25 1571.96 2013.01C1571.96 1957.89 1571.08 1903.65 1569.34 1850.28C1568.46 1796.04 1567.59 1746.6 1566.71 1701.98C1565.84 1656.49 1564.52 1617.99 1562.77 1586.5C1561.9 1554.13 1560.59 1532.25 1558.84 1520.88C1607.83 1513.88 1661.64 1507.32 1720.26 1501.19C1778.87 1495.07 1840.12 1495.51 1903.98 1502.51C1955.6 1505.13 2001.97 1520.01 2043.09 1547.13C2084.21 1574.25 2116.15 1607.93 2138.89 1648.18C2161.64 1688.42 2173.45 1733.04 2174.33 1782.04C2176.08 1830.16 2163.39 1876.96 2136.27 1922.46C2119.65 1953.95 2097.34 1980.2 2069.34 2001.2C2042.22 2022.2 2007.66 2034.01 1965.66 2036.63H1960.41H1959.1V2037.95C1977.48 2070.32 1997.6 2102.69 2019.47 2135.06C2041.34 2166.56 2062.78 2198.49 2083.78 2230.86C2104.77 2263.23 2124.9 2296.48 2144.14 2330.6ZM1840.99 1684.92C1811.24 1685.8 1781.06 1692.36 1750.44 1704.61C1751.31 1715.98 1751.75 1729.11 1751.75 1743.98C1752.63 1757.98 1753.06 1772.41 1753.06 1787.29C1753.06 1802.16 1753.06 1816.6 1753.06 1830.59C1753.94 1844.59 1755.25 1856.4 1757 1866.03H1758.31C1778.44 1867.78 1800.31 1869.09 1823.93 1869.96C1847.55 1870.84 1869.86 1869.53 1890.86 1866.03C1907.48 1862.53 1920.17 1854.22 1928.92 1841.09C1938.54 1827.09 1944.23 1812.22 1945.98 1796.47C1947.73 1779.85 1945.98 1763.66 1940.73 1747.92C1935.48 1731.29 1926.73 1718.17 1914.48 1708.55C1895.23 1691.05 1870.74 1683.17 1840.99 1684.92ZM2655.4 1917.21C2661.53 1942.58 2666.34 1962.7 2669.84 1977.58L2768.27 2436.9V2438.21C2742.02 2443.46 2713.15 2445.21 2681.65 2443.46C2650.16 2442.59 2620.41 2439.09 2592.41 2432.96H2591.1C2585.85 2418.96 2580.6 2402.34 2575.35 2383.09C2570.98 2363.84 2566.17 2344.16 2560.92 2324.04C2556.54 2303.91 2551.73 2284.67 2546.48 2266.29C2541.23 2247.92 2535.54 2232.17 2529.42 2219.05C2518.05 2217.3 2509.3 2216.42 2503.17 2216.42C2497.05 2216.42 2491.36 2216.42 2486.11 2216.42C2481.74 2216.42 2476.49 2216.86 2470.36 2217.74C2465.11 2217.74 2457.68 2217.74 2448.05 2217.74C2441.93 2231.73 2436.68 2248.36 2432.31 2267.61C2428.81 2285.98 2424.87 2305.66 2420.49 2326.66C2417 2346.78 2413.06 2366.47 2408.68 2385.72C2404.31 2404.96 2398.18 2422.03 2390.31 2436.9C2389.44 2436.9 2388.56 2437.34 2387.69 2438.21C2387.69 2438.21 2387.25 2438.21 2386.37 2438.21C2379.37 2439.96 2361.88 2439.96 2333.88 2438.21C2305.88 2436.46 2262.14 2436.02 2202.65 2436.9C2201.77 2436.9 2200.9 2436.46 2200.02 2435.59C2201.77 2429.46 2204.83 2412.4 2209.21 2384.4C2213.58 2356.41 2219.71 2320.1 2227.58 2275.48C2235.45 2230.86 2244.64 2179.68 2255.14 2121.94C2266.51 2063.32 2279.64 2001.2 2294.51 1935.58C2309.38 1869.96 2325.57 1801.72 2343.07 1730.86C2360.56 1659.99 2379.81 1589.56 2400.81 1519.57C2406.93 1518.69 2413.5 1518.26 2420.49 1518.26C2427.49 1518.26 2436.68 1518.26 2448.05 1518.26C2459.43 1518.26 2473.86 1518.26 2491.36 1518.26C2509.73 1517.38 2533.36 1515.63 2562.23 1513.01C2564.85 1524.38 2568.79 1541.88 2574.04 1565.5C2580.16 1588.25 2586.29 1614.49 2592.41 1644.24C2599.41 1673.11 2606.41 1704.17 2613.41 1737.42C2621.28 1770.66 2628.72 1802.6 2635.72 1833.22C2642.72 1863.84 2649.28 1891.84 2655.4 1917.21ZM2486.11 2064.19C2502.74 2063.32 2519.36 2062.88 2535.98 2062.88C2527.23 1987.64 2519.36 1929.02 2512.36 1887.03C2506.23 1845.03 2500.55 1816.6 2495.3 1801.72C2490.92 1786.85 2486.11 1783.79 2480.86 1792.54C2476.49 1800.41 2472.11 1817.03 2467.74 1842.41C2464.24 1867.78 2459.87 1899.71 2454.62 1938.21C2450.24 1976.7 2444.99 2018.26 2438.87 2062.88C2453.74 2063.75 2469.49 2064.19 2486.11 2064.19ZM3034.42 1712.48C3022.17 1715.11 3012.54 1719.92 3005.55 1726.92C3003.8 1728.67 3002.05 1731.73 3000.3 1736.11C2999.42 1739.6 2998.55 1742.23 2997.67 1743.98C2995.92 1746.6 2994.17 1761.91 2992.42 1789.91C2991.55 1817.91 2990.67 1851.15 2989.8 1889.65C2988.92 1928.15 2988.48 1968.39 2988.48 2010.39C2988.48 2051.51 2989.8 2087.38 2992.42 2118C2995.05 2143.37 3001.61 2168.3 3012.11 2192.8C3023.48 2216.42 3041.85 2231.73 3067.23 2238.73C3086.47 2240.48 3104.41 2237.86 3121.03 2230.86C3138.53 2222.99 3151.65 2210.3 3160.4 2192.8C3170.03 2172.68 3173.96 2151.68 3172.21 2129.81C3171.34 2107.06 3173.09 2084.75 3177.46 2062.88C3189.71 2064.63 3203.27 2065.07 3218.15 2064.19C3233.89 2063.32 3249.64 2062.88 3265.39 2062.88C3281.14 2062.88 3296.45 2063.32 3311.32 2064.19C3327.07 2065.07 3341.07 2067.25 3353.32 2070.75C3368.19 2116.25 3372.13 2161.74 3365.13 2207.24C3358.13 2251.86 3342.82 2292.1 3319.2 2327.97C3295.57 2363.84 3264.52 2393.59 3226.02 2417.21C3188.4 2439.96 3145.53 2451.77 3097.41 2452.65C3065.91 2457.02 3033.54 2457.02 3000.3 2452.65C2967.05 2449.15 2935.99 2440.84 2907.12 2427.71C2878.25 2413.71 2853.75 2394.47 2833.63 2369.97C2814.38 2345.47 2803.01 2314.85 2799.51 2278.1C2797.76 2246.61 2796.44 2213.8 2795.57 2179.68C2794.69 2145.56 2793.82 2107.5 2792.94 2065.5C2792.94 2022.63 2792.94 1974.51 2792.94 1921.15C2793.82 1866.9 2794.69 1804.35 2795.57 1733.48C2793.82 1718.61 2794.26 1703.73 2796.88 1688.86C2800.38 1673.11 2804.76 1658.68 2810.01 1645.55C2817.88 1622.81 2827.5 1601.81 2838.88 1582.56C2851.13 1563.31 2865.56 1546.25 2882.18 1531.38C2891.81 1524.38 2902.31 1518.69 2913.68 1514.32C2925.05 1509.07 2936.87 1504.69 2949.11 1501.19C2989.36 1488.07 3029.17 1482.82 3068.54 1485.45C3107.91 1488.07 3144.65 1497.26 3178.78 1513.01C3213.77 1527.88 3245.27 1548 3273.26 1573.37C3301.26 1598.75 3323.57 1628.06 3340.19 1661.3C3356.82 1693.67 3366.88 1729.11 3370.38 1767.6C3373.88 1806.1 3368.63 1845.47 3354.63 1885.71C3322.26 1892.71 3290.32 1895.34 3258.83 1893.59C3228.21 1890.96 3196.27 1886.59 3163.03 1880.46C3160.4 1863.84 3158.65 1845.03 3157.78 1824.03C3157.78 1803.03 3155.59 1783.79 3151.22 1766.29C3146.84 1747.92 3138.53 1733.04 3126.28 1721.67C3114.91 1710.3 3096.53 1705.05 3071.16 1705.92C3059.79 1707.67 3047.54 1709.86 3034.42 1712.48ZM3831.38 1856.84C3810.38 1893.59 3792.01 1930.33 3776.26 1967.08L4000.67 2432.96C3972.68 2439.09 3942.06 2441.27 3908.81 2439.52C3876.44 2437.77 3846.25 2436.46 3818.26 2435.59C3799.88 2414.59 3782.82 2389.65 3767.08 2360.78C3751.33 2331.04 3736.02 2300.41 3721.14 2268.92C3707.15 2237.42 3693.15 2206.36 3679.15 2175.74C3665.15 2145.12 3651.15 2117.56 3637.15 2093.06C3636.28 2118.44 3635.84 2145.99 3635.84 2175.74C3636.72 2204.61 3637.59 2233.92 3638.47 2263.67C3639.34 2293.42 3639.78 2322.72 3639.78 2351.6C3640.65 2380.47 3641.09 2407.15 3641.09 2431.65C3628.84 2435.15 3614.41 2437.34 3597.78 2438.21C3581.16 2439.96 3563.66 2440.84 3545.29 2440.84C3526.92 2440.84 3508.98 2439.96 3491.48 2438.21C3474.86 2436.46 3460.86 2434.27 3449.49 2431.65C3442.49 2281.17 3441.18 2130.25 3445.55 1978.89C3450.8 1826.66 3452.99 1673.99 3452.11 1520.88C3480.98 1520.01 3510.29 1520.44 3540.04 1522.19C3570.66 1523.07 3599.97 1523.5 3627.97 1523.5C3629.72 1573.37 3630.15 1625.87 3629.28 1680.99C3628.4 1736.11 3628.84 1788.6 3630.59 1838.47C3630.59 1839.34 3631.03 1838.91 3631.9 1837.16C3633.65 1834.53 3635.4 1832.34 3637.15 1830.59C3655.53 1806.97 3672.15 1782.47 3687.02 1757.1C3701.9 1731.73 3715.89 1705.92 3729.02 1679.67C3743.02 1653.43 3757.01 1627.18 3771.01 1600.93C3785.89 1574.69 3802.51 1548.44 3820.88 1522.19C3848.88 1523.94 3878.63 1523.94 3910.12 1522.19C3941.62 1520.44 3971.36 1521.76 3999.36 1526.13C3988.86 1562.88 3973.99 1599.62 3954.74 1636.37C3936.37 1673.11 3916.25 1709.86 3894.37 1746.6C3873.38 1783.35 3852.38 1820.1 3831.38 1856.84Z" fill="white"/>
</svg>
