<svg width="215" height="258" viewBox="0 0 215 258" fill="none" xmlns="http://www.w3.org/2000/svg">
<path d="M56.0746 46.336H94.0902V117.086C94.0902 117.141 94.0999 117.195 94.1189 117.246L107.03 151.942C107.186 152.362 106.709 152.732 106.341 152.478L82.3792 135.922L69.8005 126.546L57.6791 117.169C56.0719 113.505 56.0746 109.7 56.0746 109.7V46.336Z" fill="#A0A0A0"/>
<path d="M150.535 256.679C151.908 250.046 112.113 160.623 112.113 160.623L85.5835 168.856L116.23 215.74C116.23 215.74 149.162 263.311 150.535 256.679Z" fill="#A0A0A0"/>
<path d="M0.502958 17.5553H203.752C209.53 17.5553 214.213 22.2387 214.213 28.0161V60.975C214.213 60.975 214.213 58.5067 214.213 63.8696C214.213 69.2325 208.615 76.0021 208.615 76.0021L178.813 53.6484V44.4589V44.7969H0.502958V17.5553Z" fill="#A0A0A0"/>
<path d="M130.408 162.91C128.752 160.482 141.569 134.779 143.673 130.891C178.436 66.6248 178.436 66.6248 178.436 66.6248L178.435 66.6252L192.616 99.7872C192.616 99.7872 133.838 167.942 130.408 162.91Z" fill="#A0A0A0"/>
<path d="M0.50293 17.5555H203.752C209.529 17.5555 214.213 22.2389 214.213 28.0162V28.3159L0.50293 41.5417V17.5555Z" fill="#ECECEC"/>
<path d="M143.671 130.891L178.401 66.5267L192.614 99.7873L186.21 107.106L143.671 130.891Z" fill="#ECECEC"/>
<path d="M150.53 256.676C151.933 250.046 112.112 160.623 112.112 160.623L95.1874 165.883L116.228 215.741C116.228 215.741 149.128 263.307 150.53 256.676Z" fill="#ECECEC"/>
<path d="M56.5928 46.3361L94.0907 53.1328V117.086C94.0907 117.141 94.1005 117.195 94.1194 117.246L107.03 151.942C107.186 152.362 106.709 152.733 106.341 152.478L82.3788 135.923L56.5928 46.3361Z" fill="#ECECEC"/>
<path d="M60.3128 123.539L110.396 158.68L79.9812 168.187L60.3128 123.539Z" fill="#D7F51D"/>
<path d="M124.247 236.671L139.74 256.76H113.273L124.247 236.671Z" fill="#D7F51D"/>
<path d="M70.1453 145.863L105.6 155.316L110.395 158.68L79.9795 168.188L70.1453 145.863Z" fill="#DFFF1B"/>
<path d="M124.245 236.671L139.739 256.759H126.963L118.056 247.988L124.245 236.671Z" fill="#DFFF1B"/>
<path d="M176.223 54.4273L213.162 81.6416L200.618 115.326L176.223 54.4273Z" fill="#DFFF1B"/>
<path d="M56.0782 0.529297H93.9712V15.5122H56.0782V0.529297Z" fill="#DFFF1B"/>
<path d="M179.275 62.039L213.165 81.641L207.785 96.0927L179.275 62.039Z" fill="#D7F51D"/>
</svg>
